#include <avr/pgmspace.h>

//const char hogehoge[] PROGMEM = {
PROGMEM prog_uint16_t charSet[] = {
0x4d,0x54,0x68,0x64,0x00,0x00,0x00,0x06,0x00,0x01,0x00,0x06,0x00,0x60,0x4d,0x54
,0x72,0x6b,0x00,0x00,0x03,0xc3,0x00,0xff,0x58,0x04,0x04,0x02,0x60,0x08,0x00,0xff
,0x51,0x03,0x07,0xa1,0x20,0x00,0xf0,0x13,0x43,0x10,0x4c,0x06,0x00,0x00,0x4d,0x59
,0x4d,0x49,0x44,0x49,0x30,0x30,0x2e,0x4d,0x49,0x44,0xf7,0x83,0x00,0xf0,0x0a,0x43
,0x10,0x4c,0x06,0x00,0x00,0x43,0x20,0x37,0xf7,0x00,0xff,0x06,0x03,0x43,0x20,0x37
,0x83,0x00,0xf0,0x0a,0x43,0x10,0x4c,0x06,0x00,0x00,0x43,0x20,0x37,0xf7,0x00,0xff
,0x06,0x03,0x43,0x20,0x37,0x81,0x40,0xf0,0x0a,0x43,0x10,0x4c,0x06,0x00,0x00,0x43
,0x20,0x37,0xf7,0x00,0xff,0x06,0x03,0x43,0x20,0x37,0x81,0x40,0xf0,0x0a,0x43,0x10
,0x4c,0x06,0x00,0x00,0x43,0x20,0x37,0xf7,0x00,0xff,0x06,0x03,0x43,0x20,0x37,0x83
,0x00,0xf0,0x0a,0x43,0x10,0x4c,0x06,0x00,0x00,0x43,0x20,0x37,0xf7,0x00,0xff,0x06
,0x03,0x43,0x20,0x37,0x81,0x40,0xf0,0x0a,0x43,0x10,0x4c,0x06,0x00,0x00,0x43,0x20
,0x37,0xf7,0x00,0xff,0x06,0x03,0x43,0x20,0x37,0x81,0x40,0xf0,0x0a,0x43,0x10,0x4c
,0x06,0x00,0x00,0x43,0x20,0x37,0xf7,0x00,0xff,0x06,0x03,0x43,0x20,0x37,0x83,0x00
,0xf0,0x0a,0x43,0x10,0x4c,0x06,0x00,0x00,0x43,0x20,0x37,0xf7,0x00,0xff,0x06,0x03
,0x43,0x20,0x37,0x81,0x40,0xf0,0x0a,0x43,0x10,0x4c,0x06,0x00,0x00,0x43,0x20,0x37
,0xf7,0x00,0xff,0x06,0x03,0x43,0x20,0x37,0x81,0x40,0xf0,0x0a,0x43,0x10,0x4c,0x06
,0x00,0x00,0x43,0x20,0x37,0xf7,0x00,0xff,0x06,0x03,0x43,0x20,0x37,0x83,0x00,0xf0
,0x0a,0x43,0x10,0x4c,0x06,0x00,0x00,0x43,0x20,0x37,0xf7,0x00,0xff,0x06,0x03,0x43
,0x20,0x37,0x81,0x40,0xf0,0x0a,0x43,0x10,0x4c,0x06,0x00,0x00,0x43,0x20,0x37,0xf7
,0x00,0xff,0x06,0x03,0x43,0x20,0x37,0x81,0x40,0xf0,0x0a,0x43,0x10,0x4c,0x06,0x00
,0x00,0x43,0x20,0x37,0xf7,0x00,0xff,0x06,0x03,0x43,0x20,0x37,0x60,0xf0,0x0a,0x43
,0x10,0x4c,0x06,0x00,0x00,0x43,0x20,0x37,0xf7,0x00,0xff,0x06,0x03,0x43,0x20,0x37
,0x81,0x40,0xf0,0x0a,0x43,0x10,0x4c,0x06,0x00,0x00,0x43,0x20,0x37,0xf7,0x00,0xff
,0x06,0x03,0x43,0x20,0x37,0x60,0xf0,0x0a,0x43,0x10,0x4c,0x06,0x00,0x00,0x43,0x20
,0x37,0xf7,0x00,0xff,0x06,0x03,0x43,0x20,0x37,0x83,0x00,0xf0,0x0a,0x43,0x10,0x4c
,0x06,0x00,0x00,0x47,0x20,0x37,0xf7,0x00,0xff,0x06,0x03,0x47,0x20,0x37,0x83,0x00
,0xf0,0x0a,0x43,0x10,0x4c,0x06,0x00,0x00,0x46,0x20,0x37,0xf7,0x00,0xff,0x06,0x03
,0x46,0x20,0x37,0x83,0x00,0xf0,0x0a,0x43,0x10,0x4c,0x06,0x00,0x00,0x43,0x20,0x37
,0xf7,0x00,0xff,0x06,0x03,0x43,0x20,0x37,0x83,0x00,0xf0,0x0a,0x43,0x10,0x4c,0x06
,0x00,0x00,0x47,0x20,0x37,0xf7,0x00,0xff,0x06,0x03,0x47,0x20,0x37,0x81,0x40,0xf0
,0x0a,0x43,0x10,0x4c,0x06,0x00,0x00,0x47,0x20,0x37,0xf7,0x00,0xff,0x06,0x03,0x47
,0x20,0x37,0x81,0x40,0xf0,0x0a,0x43,0x10,0x4c,0x06,0x00,0x00,0x47,0x20,0x37,0xf7
,0x00,0xff,0x06,0x03,0x47,0x20,0x37,0x81,0x40,0xf0,0x0a,0x43,0x10,0x4c,0x06,0x00
,0x00,0x47,0x20,0x37,0xf7,0x00,0xff,0x06,0x03,0x47,0x20,0x37,0x81,0x40,0xf0,0x0a
,0x43,0x10,0x4c,0x06,0x00,0x00,0x43,0x20,0x37,0xf7,0x00,0xff,0x06,0x03,0x43,0x20
,0x37,0x83,0x00,0xf0,0x0a,0x43,0x10,0x4c,0x06,0x00,0x00,0x47,0x20,0x37,0xf7,0x00
,0xff,0x06,0x03,0x47,0x20,0x37,0x83,0x00,0xf0,0x0a,0x43,0x10,0x4c,0x06,0x00,0x00
,0x46,0x20,0x37,0xf7,0x00,0xff,0x06,0x03,0x46,0x20,0x37,0x83,0x00,0xf0,0x0a,0x43
,0x10,0x4c,0x06,0x00,0x00,0x43,0x20,0x37,0xf7,0x00,0xff,0x06,0x03,0x43,0x20,0x37
,0x83,0x00,0xf0,0x0a,0x43,0x10,0x4c,0x06,0x00,0x00,0x47,0x20,0x37,0xf7,0x00,0xff
,0x06,0x03,0x47,0x20,0x37,0x81,0x40,0xf0,0x0a,0x43,0x10,0x4c,0x06,0x00,0x00,0x47
,0x20,0x37,0xf7,0x00,0xff,0x06,0x03,0x47,0x20,0x37,0x81,0x40,0xf0,0x0a,0x43,0x10
,0x4c,0x06,0x00,0x00,0x47,0x20,0x37,0xf7,0x00,0xff,0x06,0x03,0x47,0x20,0x37,0x81
,0x40,0xf0,0x0a,0x43,0x10,0x4c,0x06,0x00,0x00,0x47,0x20,0x37,0xf7,0x00,0xff,0x06
,0x03,0x47,0x20,0x37,0x81,0x40,0xf0,0x0a,0x43,0x10,0x4c,0x06,0x00,0x00,0x43,0x20
,0x37,0xf7,0x00,0xff,0x06,0x03,0x43,0x20,0x37,0x83,0x00,0xf0,0x0a,0x43,0x10,0x4c
,0x06,0x00,0x00,0x46,0x20,0x37,0xf7,0x00,0xff,0x06,0x03,0x46,0x20,0x37,0x83,0x00
,0xf0,0x0a,0x43,0x10,0x4c,0x06,0x00,0x00,0x46,0x20,0x37,0xf7,0x00,0xff,0x06,0x03
,0x46,0x20,0x37,0x83,0x00,0xf0,0x0a,0x43,0x10,0x4c,0x06,0x00,0x00,0x47,0x20,0x37
,0xf7,0x00,0xff,0x06,0x03,0x47,0x20,0x37,0x83,0x00,0xf0,0x0a,0x43,0x10,0x4c,0x06
,0x00,0x00,0x46,0x20,0x37,0xf7,0x00,0xff,0x06,0x03,0x46,0x20,0x37,0x81,0x40,0xf0
,0x0a,0x43,0x10,0x4c,0x06,0x00,0x00,0x47,0x20,0x37,0xf7,0x00,0xff,0x06,0x03,0x47
,0x20,0x37,0x81,0x40,0xf0,0x0a,0x43,0x10,0x4c,0x06,0x00,0x00,0x46,0x20,0x37,0xf7
,0x00,0xff,0x06,0x03,0x46,0x20,0x37,0x81,0x40,0xf0,0x0a,0x43,0x10,0x4c,0x06,0x00
,0x00,0x47,0x20,0x37,0xf7,0x00,0xff,0x06,0x03,0x47,0x20,0x37,0x81,0x40,0xf0,0x0a
,0x43,0x10,0x4c,0x06,0x00,0x00,0x46,0x20,0x37,0xf7,0x00,0xff,0x06,0x03,0x46,0x20
,0x37,0x81,0x40,0xf0,0x0a,0x43,0x10,0x4c,0x06,0x00,0x00,0x47,0x20,0x37,0xf7,0x00
,0xff,0x06,0x03,0x47,0x20,0x37,0x81,0x40,0xf0,0x0a,0x43,0x10,0x4c,0x06,0x00,0x00
,0x46,0x20,0x37,0xf7,0x00,0xff,0x06,0x03,0x46,0x20,0x37,0x81,0x40,0xf0,0x0a,0x43
,0x10,0x4c,0x06,0x00,0x00,0x47,0x20,0x37,0xf7,0x00,0xff,0x06,0x03,0x47,0x20,0x37
,0x81,0x40,0xf0,0x0a,0x43,0x10,0x4c,0x06,0x00,0x00,0x43,0x20,0x37,0xf7,0x00,0xff
,0x06,0x03,0x43,0x20,0x37,0x00,0xff,0x2f,0x00,0x4d,0x54,0x72,0x6b,0x00,0x00,0x05
,0x73,0x00,0xf0,0x08,0x43,0x10,0x4c,0x00,0x00,0x7e,0x00,0xf7,0x60,0xff,0x58,0x04
,0x04,0x02,0x60,0x08,0x00,0xb1,0x00,0x00,0x00,0xc1,0x16,0x00,0xb1,0x07,0x73,0x00
,0xb1,0x5b,0x3c,0x00,0xb1,0x5d,0x00,0x00,0xb1,0x4a,0x40,0x00,0xb1,0x0a,0x40,0x83
,0x20,0x91,0x4f,0x40,0x3d,0x81,0x4f,0x28,0x03,0x91,0x48,0x40,0x3d,0x81,0x48,0x28
,0x03,0x91,0x4f,0x40,0x3d,0x81,0x4f,0x28,0x03,0x91,0x43,0x40,0x3d,0x81,0x43,0x28
,0x03,0x91,0x3c,0x40,0x3d,0x81,0x3c,0x28,0x03,0x91,0x43,0x40,0x3d,0x81,0x43,0x28
,0x03,0x91,0x4f,0x40,0x3d,0x81,0x4f,0x28,0x03,0x91,0x48,0x40,0x3d,0x81,0x48,0x28
,0x03,0x91,0x4f,0x40,0x3d,0x81,0x4f,0x28,0x03,0x91,0x48,0x40,0x3d,0x81,0x48,0x28
,0x81,0x03,0x91,0x4f,0x40,0x3d,0x81,0x4f,0x28,0x03,0x91,0x48,0x40,0x3d,0x81,0x48
,0x28,0x03,0x91,0x4f,0x40,0x3d,0x81,0x4f,0x28,0x03,0x91,0x43,0x40,0x3d,0x81,0x43
,0x28,0x03,0x91,0x3c,0x40,0x3d,0x81,0x3c,0x28,0x03,0x91,0x43,0x40,0x3d,0x81,0x43
,0x28,0x03,0x91,0x4f,0x40,0x3d,0x81,0x4f,0x28,0x03,0x91,0x48,0x40,0x3d,0x81,0x48
,0x28,0x03,0x91,0x4f,0x40,0x3d,0x81,0x4f,0x28,0x03,0x91,0x48,0x40,0x3d,0x81,0x48
,0x28,0x81,0x03,0x91,0x4f,0x40,0x3d,0x81,0x4f,0x28,0x03,0x91,0x48,0x40,0x3d,0x81
,0x48,0x28,0x03,0x91,0x4f,0x40,0x3d,0x81,0x4f,0x28,0x03,0x91,0x43,0x40,0x3d,0x81
,0x43,0x28,0x03,0x91,0x3c,0x40,0x3d,0x81,0x3c,0x28,0x03,0x91,0x43,0x40,0x3d,0x81
,0x43,0x28,0x03,0x91,0x4f,0x40,0x3d,0x81,0x4f,0x28,0x03,0x91,0x48,0x40,0x3d,0x81
,0x48,0x28,0x03,0x91,0x4f,0x40,0x3d,0x81,0x4f,0x28,0x03,0x91,0x48,0x40,0x3d,0x81
,0x48,0x28,0x81,0x03,0x91,0x4f,0x40,0x3d,0x81,0x4f,0x28,0x03,0x91,0x48,0x40,0x3d
,0x81,0x48,0x28,0x03,0x91,0x4f,0x40,0x3d,0x81,0x4f,0x28,0x03,0x91,0x43,0x40,0x3d
,0x81,0x43,0x28,0x03,0x91,0x3c,0x40,0x3d,0x81,0x3c,0x28,0x03,0x91,0x43,0x40,0x3d
,0x81,0x43,0x28,0x03,0x91,0x4f,0x40,0x3d,0x81,0x4f,0x28,0x03,0x91,0x48,0x40,0x3d
,0x81,0x48,0x28,0x03,0x91,0x4f,0x40,0x3d,0x81,0x4f,0x28,0x03,0x91,0x48,0x40,0x3d
,0x81,0x48,0x28,0x03,0x91,0x3c,0x40,0x1d,0x81,0x3c,0x28,0x03,0x91,0x43,0x40,0x3d
,0x81,0x43,0x28,0x03,0x91,0x3c,0x40,0x3d,0x81,0x3c,0x28,0x03,0x91,0x48,0x40,0x3d
,0x81,0x48,0x28,0x03,0x91,0x4f,0x40,0x3d,0x81,0x4f,0x28,0x03,0x91,0x48,0x40,0x3d
,0x81,0x48,0x28,0x03,0x91,0x46,0x40,0x1d,0x81,0x46,0x28,0x81,0x03,0x91,0x3c,0x40
,0x3d,0x81,0x3c,0x28,0x03,0x91,0x3a,0x40,0x3d,0x81,0x3a,0x28,0x03,0x91,0x3c,0x40
,0x3d,0x81,0x3c,0x28,0x03,0x91,0x43,0x40,0x3d,0x81,0x43,0x28,0x03,0x91,0x3e,0x40
,0x3d,0x81,0x3e,0x28,0x03,0x91,0x37,0x40,0x3d,0x81,0x37,0x28,0x03,0x91,0x3e,0x40
,0x3d,0x81,0x3e,0x28,0x03,0x91,0x37,0x40,0x3d,0x81,0x37,0x28,0x03,0x91,0x3e,0x40
,0x3d,0x81,0x3e,0x28,0x03,0x91,0x37,0x40,0x3d,0x81,0x37,0x28,0x03,0x91,0x3f,0x40
,0x1d,0x81,0x3f,0x28,0x03,0x91,0x3c,0x40,0x3d,0x81,0x3c,0x28,0x03,0x91,0x39,0x40
,0x3d,0x81,0x39,0x28,0x03,0x91,0x3c,0x40,0x1d,0x81,0x3c,0x28,0x03,0x91,0x39,0x40
,0x3d,0x81,0x39,0x28,0x03,0x91,0x3c,0x40,0x3d,0x81,0x3c,0x28,0x03,0x91,0x3f,0x40
,0x3d,0x81,0x3f,0x28,0x03,0x91,0x3c,0x40,0x3d,0x81,0x3c,0x28,0x03,0x91,0x43,0x40
,0x3d,0x81,0x43,0x28,0x03,0x91,0x3c,0x40,0x3d,0x81,0x3c,0x28,0x03,0x91,0x3a,0x40
,0x3d,0x81,0x3a,0x28,0x03,0x91,0x3c,0x40,0x3d,0x81,0x3c,0x28,0x03,0x91,0x43,0x40
,0x3d,0x81,0x43,0x28,0x03,0x91,0x3e,0x40,0x3d,0x81,0x3e,0x28,0x03,0x91,0x37,0x40
,0x3d,0x81,0x37,0x28,0x03,0x91,0x3e,0x40,0x3d,0x81,0x3e,0x28,0x03,0x91,0x37,0x40
,0x3d,0x81,0x37,0x28,0x03,0x91,0x3e,0x40,0x3d,0x81,0x3e,0x28,0x03,0x91,0x37,0x40
,0x3d,0x81,0x37,0x28,0x03,0x91,0x3e,0x40,0x3d,0x81,0x3e,0x28,0x03,0x91,0x37,0x40
,0x1d,0x81,0x37,0x28,0x03,0x91,0x3e,0x40,0x3d,0x81,0x3e,0x28,0x03,0x91,0x37,0x40
,0x1d,0x81,0x37,0x28,0x03,0x91,0x3e,0x40,0x3d,0x81,0x3e,0x28,0x03,0x91,0x37,0x40
,0x3d,0x81,0x37,0x28,0x03,0x91,0x3e,0x40,0x3d,0x81,0x3e,0x28,0x81,0x03,0x91,0x3c
,0x40,0x3d,0x81,0x3c,0x28,0x03,0x91,0x3a,0x40,0x3d,0x81,0x3a,0x28,0x03,0x91,0x3c
,0x40,0x3d,0x81,0x3c,0x28,0x03,0x91,0x43,0x40,0x3d,0x81,0x43,0x28,0x03,0x91,0x3e
,0x40,0x3d,0x81,0x3e,0x28,0x03,0x91,0x37,0x40,0x3d,0x81,0x37,0x28,0x03,0x91,0x3e
,0x40,0x3d,0x81,0x3e,0x28,0x03,0x91,0x37,0x40,0x3d,0x81,0x37,0x28,0x03,0x91,0x3e
,0x40,0x3d,0x81,0x3e,0x28,0x03,0x91,0x37,0x40,0x3d,0x81,0x37,0x28,0x03,0x91,0x3f
,0x40,0x1d,0x81,0x3f,0x28,0x03,0x91,0x3c,0x40,0x3d,0x81,0x3c,0x28,0x03,0x91,0x39
,0x40,0x3d,0x81,0x39,0x28,0x03,0x91,0x3c,0x40,0x1d,0x81,0x3c,0x28,0x03,0x91,0x39
,0x40,0x3d,0x81,0x39,0x28,0x03,0x91,0x3c,0x40,0x3d,0x81,0x3c,0x28,0x03,0x91,0x3f
,0x40,0x3d,0x81,0x3f,0x28,0x03,0x91,0x3c,0x40,0x3d,0x81,0x3c,0x28,0x03,0x91,0x43
,0x40,0x3d,0x81,0x43,0x28,0x03,0x91,0x3c,0x40,0x3d,0x81,0x3c,0x28,0x03,0x91,0x3a
,0x40,0x3d,0x81,0x3a,0x28,0x03,0x91,0x3c,0x40,0x3d,0x81,0x3c,0x28,0x03,0x91,0x43
,0x40,0x3d,0x81,0x43,0x28,0x03,0x91,0x3e,0x40,0x3d,0x81,0x3e,0x28,0x03,0x91,0x37
,0x40,0x3d,0x81,0x37,0x28,0x03,0x91,0x3e,0x40,0x3d,0x81,0x3e,0x28,0x03,0x91,0x37
,0x40,0x3d,0x81,0x37,0x28,0x03,0x91,0x3e,0x40,0x3d,0x81,0x3e,0x28,0x03,0x91,0x37
,0x40,0x3d,0x81,0x37,0x28,0x03,0x91,0x3e,0x40,0x3d,0x81,0x3e,0x28,0x03,0x91,0x37
,0x40,0x1d,0x81,0x37,0x28,0x03,0x91,0x3e,0x40,0x3d,0x81,0x3e,0x28,0x03,0x91,0x37
,0x40,0x1d,0x81,0x37,0x28,0x03,0x91,0x3e,0x40,0x3d,0x81,0x3e,0x28,0x03,0x91,0x37
,0x40,0x3d,0x81,0x37,0x28,0x03,0x91,0x3e,0x40,0x3d,0x81,0x3e,0x28,0x03,0x91,0x3c
,0x40,0x3d,0x81,0x3c,0x28,0x03,0x91,0x43,0x40,0x1d,0x81,0x43,0x28,0x03,0x91,0x3c
,0x40,0x1d,0x81,0x3c,0x28,0x03,0x91,0x46,0x40,0x3d,0x81,0x46,0x28,0x03,0x91,0x48
,0x40,0x3d,0x81,0x48,0x28,0x03,0x91,0x4f,0x40,0x3d,0x81,0x4f,0x28,0x03,0x91,0x48
,0x40,0x3d,0x81,0x48,0x28,0x03,0x91,0x3c,0x40,0x3d,0x81,0x3c,0x28,0x03,0x91,0x41
,0x40,0x3d,0x81,0x41,0x28,0x03,0x91,0x45,0x40,0x3d,0x81,0x45,0x28,0x03,0x91,0x48
,0x40,0x3d,0x81,0x48,0x28,0x03,0x91,0x4b,0x40,0x3d,0x81,0x4b,0x28,0x03,0x91,0x51
,0x40,0x1d,0x81,0x51,0x28,0x03,0x91,0x4d,0x40,0x1d,0x81,0x4d,0x28,0x03,0x91,0x48
,0x40,0x3d,0x81,0x48,0x28,0x03,0x91,0x3f,0x40,0x3d,0x81,0x3f,0x28,0x03,0x91,0x45
,0x40,0x3d,0x81,0x45,0x28,0x03,0x91,0x48,0x40,0x1d,0x81,0x48,0x28,0x03,0x91,0x4b
,0x40,0x3d,0x81,0x4b,0x28,0x03,0x91,0x4d,0x40,0x1d,0x81,0x4d,0x28,0x03,0x91,0x51
,0x40,0x1d,0x81,0x51,0x28,0x03,0x91,0x4d,0x40,0x1d,0x81,0x4d,0x28,0x03,0x91,0x43
,0x40,0x3d,0x81,0x43,0x28,0x03,0x91,0x3e,0x40,0x0d,0x81,0x3e,0x28,0x03,0x91,0x43
,0x40,0x0d,0x81,0x43,0x28,0x03,0x91,0x3e,0x40,0x3d,0x81,0x3e,0x28,0x03,0x91,0x4a
,0x40,0x1d,0x81,0x4a,0x28,0x03,0x91,0x43,0x40,0x3d,0x81,0x43,0x28,0x03,0x91,0x4f
,0x40,0x3d,0x81,0x4f,0x28,0x03,0x91,0x4a,0x40,0x3d,0x81,0x4a,0x28,0x82,0x43,0x91
,0x4f,0x40,0x3d,0x81,0x4f,0x28,0x03,0x91,0x48,0x40,0x3d,0x81,0x48,0x28,0x03,0x91
,0x45,0x40,0x3d,0x81,0x45,0x28,0x03,0x91,0x51,0x40,0x1d,0x81,0x51,0x28,0x03,0x91
,0x4d,0x40,0x1d,0x81,0x4d,0x28,0x03,0x91,0x43,0x40,0x3d,0x81,0x43,0x28,0x03,0x91
,0x4a,0x40,0x3d,0x81,0x4a,0x28,0x03,0x91,0x4f,0x40,0x3d,0x81,0x4f,0x28,0x82,0x43
,0x91,0x4f,0x40,0x3d,0x81,0x4f,0x28,0x03,0x91,0x48,0x40,0x3d,0x81,0x48,0x28,0x03
,0x91,0x45,0x40,0x3d,0x81,0x45,0x28,0x03,0x91,0x51,0x40,0x1d,0x81,0x51,0x28,0x03
,0x91,0x4d,0x40,0x1d,0x81,0x4d,0x28,0x03,0x91,0x43,0x40,0x3d,0x81,0x43,0x28,0x03
,0x91,0x4a,0x40,0x3d,0x81,0x4a,0x28,0x03,0x91,0x4f,0x40,0x3d,0x81,0x4f,0x28,0x03
,0x91,0x4f,0x40,0x5d,0x81,0x4f,0x28,0x03,0x91,0x54,0x30,0x81,0x3d,0x81,0x54,0x28
,0x00,0xff,0x2f,0x00,0x4d,0x54,0x72,0x6b,0x00,0x00,0x07,0x8a,0x00,0xb3,0x00,0x00
,0x00,0xc3,0x01,0x00,0xb3,0x07,0x64,0x00,0xb3,0x5b,0x3c,0x00,0xb3,0x5d,0x00,0x00
,0xb3,0x4a,0x40,0x83,0x00,0x93,0x40,0x45,0x04,0x93,0x43,0x45,0x04,0x93,0x3c,0x45
,0x54,0x83,0x40,0x45,0x00,0x83,0x43,0x45,0x00,0x83,0x3c,0x45,0x04,0x93,0x40,0x46
,0x04,0x93,0x43,0x46,0x04,0x93,0x46,0x46,0x54,0x83,0x40,0x46,0x00,0x83,0x43,0x46
,0x00,0x83,0x46,0x46,0x04,0x93,0x40,0x49,0x04,0x93,0x43,0x49,0x04,0x93,0x45,0x49
,0x54,0x83,0x40,0x49,0x00,0x83,0x43,0x49,0x00,0x83,0x45,0x49,0x04,0x93,0x40,0x42
,0x04,0x93,0x43,0x42,0x04,0x93,0x46,0x42,0x54,0x83,0x40,0x42,0x00,0x83,0x43,0x42
,0x00,0x83,0x46,0x42,0x64,0x93,0x3c,0x51,0x00,0x93,0x4c,0x51,0x00,0x93,0x46,0x51
,0x1c,0x83,0x4c,0x51,0x00,0x83,0x3c,0x51,0x00,0x83,0x46,0x51,0x24,0x93,0x43,0x47
,0x00,0x93,0x4c,0x47,0x00,0x93,0x46,0x47,0x1c,0x83,0x4c,0x47,0x00,0x83,0x43,0x47
,0x00,0x83,0x46,0x47,0x64,0x93,0x3c,0x48,0x00,0x93,0x4c,0x48,0x00,0x93,0x46,0x48
,0x1c,0x83,0x4c,0x48,0x00,0x83,0x3c,0x48,0x00,0x83,0x46,0x48,0x81,0x04,0x93,0x4a
,0x48,0x00,0x93,0x40,0x48,0x00,0x93,0x46,0x48,0x1c,0x83,0x40,0x48,0x00,0x83,0x4a
,0x48,0x00,0x83,0x46,0x48,0x64,0x93,0x4d,0x48,0x00,0x93,0x40,0x48,0x00,0x93,0x46
,0x48,0x1c,0x83,0x40,0x48,0x00,0x83,0x4d,0x48,0x00,0x83,0x46,0x48,0x24,0x93,0x40
,0x4d,0x00,0x93,0x40,0x4d,0x00,0x93,0x46,0x4d,0x1c,0x83,0x40,0x4d,0x00,0x83,0x40
,0x4d,0x00,0x83,0x46,0x4d,0x44,0x93,0x4a,0x49,0x00,0x93,0x40,0x49,0x00,0x93,0x46
,0x49,0x1c,0x83,0x40,0x49,0x00,0x83,0x4a,0x49,0x00,0x83,0x46,0x49,0x04,0x93,0x4c
,0x44,0x00,0x93,0x43,0x44,0x00,0x93,0x3c,0x44,0x5c,0x83,0x4c,0x44,0x00,0x83,0x43
,0x44,0x00,0x83,0x3c,0x44,0x04,0x93,0x4c,0x41,0x00,0x93,0x43,0x41,0x00,0x93,0x46
,0x41,0x5c,0x83,0x4c,0x41,0x00,0x83,0x43,0x41,0x00,0x83,0x46,0x41,0x04,0x93,0x30
,0x4f,0x00,0x93,0x40,0x4f,0x00,0x93,0x45,0x4f,0x04,0x83,0x45,0x4f,0x00,0x93,0x46
,0x4f,0x18,0x83,0x40,0x4f,0x00,0x83,0x30,0x4f,0x00,0x83,0x46,0x4f,0x44,0x93,0x3c
,0x4f,0x00,0x93,0x40,0x4f,0x00,0x93,0x46,0x4f,0x1c,0x83,0x40,0x4f,0x00,0x83,0x3c
,0x4f,0x00,0x83,0x46,0x4f,0x24,0x93,0x43,0x50,0x00,0x93,0x40,0x50,0x00,0x93,0x46
,0x50,0x1c,0x83,0x40,0x50,0x00,0x83,0x43,0x50,0x00,0x83,0x46,0x50,0x81,0x44,0x93
,0x4d,0x46,0x00,0x93,0x40,0x46,0x00,0x93,0x46,0x46,0x1c,0x83,0x40,0x46,0x00,0x83
,0x4d,0x46,0x00,0x83,0x46,0x46,0x24,0x93,0x40,0x54,0x00,0x93,0x40,0x54,0x00,0x93
,0x46,0x54,0x1c,0x83,0x40,0x54,0x00,0x83,0x40,0x54,0x00,0x83,0x46,0x54,0x44,0x93
,0x4a,0x4d,0x00,0x93,0x40,0x4d,0x00,0x93,0x46,0x4d,0x1c,0x83,0x40,0x4d,0x00,0x83
,0x4a,0x4d,0x00,0x83,0x46,0x4d,0x82,0x24,0x93,0x3c,0x53,0x00,0x93,0x40,0x53,0x00
,0x93,0x46,0x53,0x1c,0x83,0x40,0x53,0x00,0x83,0x3c,0x53,0x00,0x83,0x46,0x53,0x84
,0x24,0x93,0x3c,0x50,0x04,0x93,0x40,0x50,0x04,0x93,0x46,0x50,0x14,0x83,0x40,0x50
,0x00,0x83,0x3c,0x50,0x00,0x83,0x46,0x50,0x44,0x93,0x30,0x45,0x00,0x93,0x40,0x45
,0x00,0x93,0x46,0x45,0x1c,0x83,0x40,0x45,0x00,0x83,0x30,0x45,0x00,0x83,0x46,0x45
,0x81,0x24,0x93,0x40,0x50,0x00,0x93,0x43,0x50,0x00,0x93,0x3b,0x50,0x04,0x83,0x3b
,0x50,0x00,0x93,0x3c,0x50,0x58,0x83,0x40,0x50,0x00,0x83,0x43,0x50,0x00,0x83,0x3c
,0x50,0x64,0x93,0x3c,0x43,0x00,0x93,0x4c,0x43,0x00,0x93,0x46,0x43,0x1c,0x83,0x4c
,0x43,0x00,0x83,0x3c,0x43,0x00,0x83,0x46,0x43,0x81,0x04,0x93,0x4a,0x4b,0x00,0x93
,0x4c,0x4b,0x00,0x93,0x46,0x4b,0x1c,0x83,0x4c,0x4b,0x00,0x83,0x4a,0x4b,0x00,0x83
,0x46,0x4b,0x83,0x64,0x93,0x43,0x44,0x04,0x93,0x47,0x44,0x04,0x93,0x4d,0x44,0x14
,0x83,0x47,0x44,0x00,0x83,0x43,0x44,0x00,0x83,0x4d,0x44,0x44,0x93,0x54,0x52,0x00
,0x93,0x47,0x52,0x00,0x93,0x4d,0x52,0x1c,0x83,0x47,0x52,0x00,0x83,0x54,0x52,0x00
,0x83,0x4d,0x52,0x24,0x93,0x47,0x52,0x00,0x93,0x47,0x52,0x00,0x93,0x4d,0x52,0x1c
,0x83,0x47,0x52,0x00,0x83,0x47,0x52,0x00,0x83,0x4d,0x52,0x44,0x93,0x51,0x45,0x00
,0x93,0x47,0x45,0x00,0x93,0x4d,0x45,0x1c,0x83,0x47,0x45,0x00,0x83,0x51,0x45,0x00
,0x83,0x4d,0x45,0x44,0x93,0x4f,0x4f,0x00,0x93,0x45,0x4f,0x00,0x93,0x3f,0x4f,0x1c
,0x83,0x45,0x4f,0x00,0x83,0x4f,0x4f,0x00,0x83,0x3f,0x4f,0x81,0x24,0x93,0x45,0x54
,0x00,0x93,0x45,0x54,0x00,0x93,0x3f,0x54,0x1c,0x83,0x45,0x54,0x00,0x83,0x45,0x54
,0x00,0x83,0x3f,0x54,0x81,0x44,0x93,0x3c,0x4f,0x00,0x93,0x40,0x4f,0x00,0x93,0x46
,0x4f,0x1c,0x83,0x40,0x4f,0x00,0x83,0x3c,0x4f,0x00,0x83,0x46,0x4f,0x82,0x64,0x93
,0x43,0x50,0x00,0x93,0x47,0x50,0x00,0x93,0x4d,0x50,0x1c,0x83,0x47,0x50,0x00,0x83
,0x43,0x50,0x00,0x83,0x4d,0x50,0x81,0x24,0x93,0x43,0x52,0x04,0x93,0x47,0x52,0x04
,0x93,0x4d,0x52,0x14,0x83,0x47,0x52,0x00,0x83,0x43,0x52,0x00,0x83,0x4d,0x52,0x82
,0x44,0x93,0x51,0x50,0x00,0x93,0x53,0x50,0x00,0x93,0x4d,0x50,0x1c,0x83,0x53,0x50
,0x00,0x83,0x51,0x50,0x00,0x83,0x4d,0x50,0x04,0x93,0x43,0x41,0x04,0x93,0x53,0x41
,0x04,0x93,0x4d,0x41,0x14,0x83,0x53,0x41,0x00,0x83,0x43,0x41,0x00,0x83,0x4d,0x41
,0x44,0x93,0x40,0x4d,0x00,0x93,0x43,0x4d,0x00,0x93,0x3b,0x4d,0x04,0x83,0x3b,0x4d
,0x00,0x93,0x3c,0x4d,0x58,0x83,0x40,0x4d,0x00,0x83,0x43,0x4d,0x00,0x83,0x3c,0x4d
,0x04,0x93,0x40,0x48,0x00,0x93,0x43,0x48,0x00,0x93,0x46,0x48,0x5c,0x83,0x40,0x48
,0x00,0x83,0x43,0x48,0x00,0x83,0x46,0x48,0x04,0x93,0x40,0x42,0x00,0x93,0x43,0x42
,0x00,0x93,0x45,0x42,0x5c,0x83,0x40,0x42,0x00,0x83,0x43,0x42,0x00,0x83,0x45,0x42
,0x04,0x93,0x40,0x52,0x00,0x93,0x43,0x52,0x00,0x93,0x46,0x52,0x5c,0x83,0x40,0x52
,0x00,0x83,0x43,0x52,0x00,0x83,0x46,0x52,0x81,0x44,0x93,0x54,0x48,0x00,0x93,0x53
,0x48,0x00,0x93,0x41,0x48,0x1c,0x83,0x53,0x48,0x00,0x83,0x54,0x48,0x00,0x83,0x41
,0x48,0x24,0x93,0x53,0x45,0x00,0x93,0x53,0x45,0x00,0x93,0x41,0x45,0x1c,0x83,0x53
,0x45,0x00,0x83,0x53,0x45,0x00,0x83,0x41,0x45,0x44,0x93,0x51,0x44,0x00,0x93,0x53
,0x44,0x00,0x93,0x41,0x44,0x1c,0x83,0x53,0x44,0x00,0x83,0x51,0x44,0x00,0x83,0x41
,0x44,0x04,0x93,0x35,0x42,0x00,0x93,0x45,0x42,0x00,0x93,0x4b,0x42,0x1c,0x83,0x45
,0x42,0x00,0x83,0x35,0x42,0x00,0x83,0x4b,0x42,0x82,0x44,0x93,0x4f,0x49,0x00,0x93
,0x45,0x49,0x00,0x93,0x4b,0x49,0x1c,0x83,0x45,0x49,0x00,0x83,0x4f,0x49,0x00,0x83
,0x4b,0x49,0x64,0x93,0x3c,0x44,0x04,0x93,0x40,0x44,0x04,0x93,0x46,0x44,0x14,0x83
,0x40,0x44,0x00,0x83,0x3c,0x44,0x00,0x83,0x46,0x44,0x82,0x64,0x93,0x43,0x4f,0x04
,0x93,0x53,0x4f,0x04,0x93,0x41,0x4f,0x14,0x83,0x53,0x4f,0x00,0x83,0x43,0x4f,0x00
,0x83,0x41,0x4f,0x44,0x93,0x53,0x45,0x00,0x93,0x4a,0x45,0x00,0x93,0x42,0x45,0x04
,0x83,0x42,0x45,0x00,0x93,0x43,0x45,0x58,0x83,0x53,0x45,0x00,0x83,0x4a,0x45,0x00
,0x83,0x43,0x45,0x04,0x93,0x53,0x4a,0x00,0x93,0x4a,0x4a,0x00,0x93,0x4d,0x4a,0x5c
,0x83,0x53,0x4a,0x00,0x83,0x4a,0x4a,0x00,0x83,0x4d,0x4a,0x44,0x93,0x51,0x44,0x00
,0x93,0x53,0x44,0x00,0x93,0x41,0x44,0x1c,0x83,0x53,0x44,0x00,0x83,0x51,0x44,0x00
,0x83,0x41,0x44,0x64,0x93,0x53,0x43,0x00,0x93,0x4a,0x43,0x00,0x93,0x42,0x43,0x04
,0x83,0x42,0x43,0x00,0x93,0x43,0x43,0x58,0x83,0x53,0x43,0x00,0x83,0x4a,0x43,0x00
,0x83,0x43,0x43,0x04,0x93,0x53,0x46,0x00,0x93,0x4a,0x46,0x00,0x93,0x4d,0x46,0x5c
,0x83,0x53,0x46,0x00,0x83,0x4a,0x46,0x00,0x83,0x4d,0x46,0x64,0x93,0x3c,0x42,0x00
,0x93,0x40,0x42,0x00,0x93,0x46,0x42,0x1c,0x83,0x40,0x42,0x00,0x83,0x3c,0x42,0x00
,0x83,0x46,0x42,0x44,0x93,0x4d,0x44,0x00,0x93,0x40,0x44,0x00,0x93,0x46,0x44,0x1c
,0x83,0x40,0x44,0x00,0x83,0x4d,0x44,0x00,0x83,0x46,0x44,0x24,0x93,0x40,0x51,0x00
,0x93,0x40,0x51,0x00,0x93,0x46,0x51,0x1c,0x83,0x40,0x51,0x00,0x83,0x40,0x51,0x00
,0x83,0x46,0x51,0x44,0x93,0x4a,0x43,0x00,0x93,0x40,0x43,0x00,0x93,0x46,0x43,0x1c
,0x83,0x40,0x43,0x00,0x83,0x4a,0x43,0x00,0x83,0x46,0x43,0x04,0x93,0x35,0x4a,0x00
,0x93,0x45,0x4a,0x00,0x93,0x4b,0x4a,0x1c,0x83,0x45,0x4a,0x00,0x83,0x35,0x4a,0x00
,0x83,0x4b,0x4a,0x24,0x93,0x4f,0x4f,0x00,0x93,0x45,0x4f,0x00,0x93,0x4b,0x4f,0x1c
,0x83,0x45,0x4f,0x00,0x83,0x4f,0x4f,0x00,0x83,0x4b,0x4f,0x04,0x93,0x41,0x50,0x04
,0x93,0x45,0x50,0x04,0x93,0x4b,0x50,0x14,0x83,0x45,0x50,0x00,0x83,0x41,0x50,0x00
,0x83,0x4b,0x50,0x81,0x64,0x93,0x4f,0x41,0x00,0x93,0x45,0x41,0x00,0x93,0x4b,0x41
,0x1c,0x83,0x45,0x41,0x00,0x83,0x4f,0x41,0x00,0x83,0x4b,0x41,0x81,0x24,0x93,0x48
,0x4a,0x00,0x93,0x45,0x4a,0x00,0x93,0x4b,0x4a,0x1c,0x83,0x45,0x4a,0x00,0x83,0x48
,0x4a,0x00,0x83,0x4b,0x4a,0x04,0x93,0x52,0x54,0x00,0x93,0x45,0x54,0x00,0x93,0x4b
,0x54,0x1c,0x83,0x45,0x54,0x00,0x83,0x52,0x54,0x00,0x83,0x4b,0x54,0x24,0x93,0x45
,0x52,0x00,0x93,0x45,0x52,0x00,0x93,0x4b,0x52,0x1c,0x83,0x45,0x52,0x00,0x83,0x45
,0x52,0x00,0x83,0x4b,0x52,0x64,0x93,0x47,0x4a,0x04,0x93,0x4a,0x4a,0x04,0x93,0x42
,0x4a,0x04,0x83,0x42,0x4a,0x00,0x93,0x43,0x4a,0x50,0x83,0x47,0x4a,0x00,0x83,0x4a
,0x4a,0x00,0x83,0x43,0x4a,0x04,0x93,0x47,0x4b,0x04,0x93,0x4a,0x4b,0x04,0x93,0x4d
,0x4b,0x54,0x83,0x47,0x4b,0x00,0x83,0x4a,0x4b,0x00,0x83,0x4d,0x4b,0x04,0x93,0x47
,0x4b,0x04,0x93,0x4a,0x4b,0x04,0x93,0x4c,0x4b,0x54,0x83,0x47,0x4b,0x00,0x83,0x4a
,0x4b,0x00,0x83,0x4c,0x4b,0x04,0x93,0x47,0x50,0x04,0x93,0x4a,0x50,0x04,0x93,0x4d
,0x50,0x54,0x83,0x47,0x50,0x00,0x83,0x4a,0x50,0x00,0x83,0x4d,0x50,0x82,0x24,0x93
,0x43,0x4f,0x00,0x93,0x47,0x4f,0x00,0x93,0x41,0x4f,0x1c,0x83,0x47,0x4f,0x00,0x83
,0x43,0x4f,0x00,0x83,0x41,0x4f,0x24,0x93,0x4a,0x4f,0x00,0x93,0x47,0x4f,0x00,0x93
,0x41,0x4f,0x1c,0x83,0x47,0x4f,0x00,0x83,0x4a,0x4f,0x00,0x83,0x41,0x4f,0x82,0x04
,0x93,0x51,0x48,0x00,0x93,0x47,0x48,0x00,0x93,0x4d,0x48,0x1c,0x83,0x47,0x48,0x00
,0x83,0x51,0x48,0x00,0x83,0x4d,0x48,0x04,0x93,0x43,0x53,0x04,0x93,0x47,0x53,0x04
,0x93,0x4d,0x53,0x14,0x83,0x47,0x53,0x00,0x83,0x43,0x53,0x00,0x83,0x4d,0x53,0x44
,0x93,0x51,0x41,0x04,0x93,0x48,0x41,0x04,0x93,0x41,0x41,0x54,0x83,0x51,0x41,0x00
,0x83,0x48,0x41,0x00,0x83,0x41,0x41,0x04,0x93,0x51,0x42,0x04,0x93,0x48,0x42,0x04
,0x93,0x3f,0x42,0x54,0x83,0x51,0x42,0x00,0x83,0x48,0x42,0x00,0x83,0x3f,0x42,0x64
,0x93,0x43,0x45,0x00,0x93,0x47,0x45,0x00,0x93,0x4d,0x45,0x1c,0x83,0x47,0x45,0x00
,0x83,0x43,0x45,0x00,0x83,0x4d,0x45,0x82,0x64,0x93,0x43,0x49,0x00,0x93,0x47,0x49
,0x00,0x93,0x4d,0x49,0x1c,0x83,0x47,0x49,0x00,0x83,0x43,0x49,0x00,0x83,0x4d,0x49
,0x82,0x44,0x93,0x26,0x3c,0x04,0x93,0x40,0x3c,0x04,0x93,0x46,0x3c,0x04,0x93,0x4f
,0x37,0x81,0x30,0x83,0x40,0x3c,0x00,0x83,0x26,0x3c,0x00,0x83,0x4f,0x3c,0x00,0x83
,0x46,0x3c,0x00,0xff,0x2f,0x00,0x4d,0x54,0x72,0x6b,0x00,0x00,0x05,0x31,0x00,0xb4
,0x00,0x00,0x00,0xc4,0x01,0x00,0xb4,0x07,0x73,0x00,0xb4,0x5b,0x3c,0x00,0xb4,0x5d
,0x00,0x00,0xb4,0x4a,0x40,0x86,0x60,0x94,0x37,0x40,0x3d,0x84,0x37,0x28,0x03,0x94
,0x3c,0x40,0x1d,0x84,0x3c,0x28,0x03,0x94,0x30,0x40,0x3d,0x84,0x30,0x28,0x03,0x94
,0x37,0x40,0x3d,0x84,0x37,0x28,0x03,0x94,0x3a,0x40,0x3d,0x84,0x3a,0x28,0x83,0x63
,0x94,0x37,0x40,0x3d,0x84,0x37,0x28,0x03,0x94,0x3c,0x40,0x1d,0x84,0x3c,0x28,0x03
,0x94,0x30,0x40,0x3d,0x84,0x30,0x28,0x03,0x94,0x37,0x40,0x3d,0x84,0x37,0x28,0x03
,0x94,0x3a,0x40,0x3d,0x84,0x3a,0x28,0x83,0x63,0x94,0x37,0x40,0x3d,0x84,0x37,0x28
,0x03,0x94,0x3c,0x40,0x1d,0x84,0x3c,0x28,0x03,0x94,0x30,0x40,0x3d,0x84,0x30,0x28
,0x03,0x94,0x37,0x40,0x3d,0x84,0x37,0x28,0x03,0x94,0x3a,0x40,0x3d,0x84,0x3a,0x28
,0x83,0x63,0x94,0x37,0x40,0x3d,0x84,0x37,0x28,0x03,0x94,0x3c,0x40,0x1d,0x84,0x3c
,0x28,0x03,0x94,0x30,0x40,0x3d,0x84,0x30,0x28,0x03,0x94,0x37,0x40,0x3d,0x84,0x37
,0x28,0x03,0x94,0x3a,0x40,0x3d,0x84,0x3a,0x28,0x03,0x94,0x30,0x40,0x3d,0x84,0x30
,0x28,0x03,0x94,0x3c,0x40,0x1d,0x84,0x3c,0x28,0x03,0x94,0x30,0x40,0x3d,0x84,0x30
,0x28,0x03,0x94,0x3c,0x40,0x3d,0x84,0x3c,0x28,0x03,0x94,0x43,0x40,0x3d,0x84,0x43
,0x28,0x03,0x94,0x3c,0x40,0x3d,0x84,0x3c,0x28,0x03,0x94,0x3a,0x40,0x0d,0x84,0x3a
,0x28,0x03,0x94,0x43,0x40,0x0d,0x84,0x43,0x28,0x03,0x94,0x30,0x40,0x3d,0x84,0x30
,0x28,0x03,0x94,0x37,0x40,0x3d,0x84,0x37,0x28,0x03,0x94,0x30,0x40,0x3d,0x84,0x30
,0x28,0x03,0x94,0x37,0x40,0x3d,0x84,0x37,0x28,0x03,0x94,0x30,0x40,0x3d,0x84,0x30
,0x28,0x03,0x94,0x37,0x40,0x1d,0x84,0x37,0x28,0x03,0x94,0x30,0x40,0x1d,0x84,0x30
,0x28,0x03,0x94,0x2b,0x40,0x3d,0x84,0x2b,0x28,0x03,0x94,0x32,0x40,0x3d,0x84,0x32
,0x28,0x03,0x94,0x37,0x40,0x3d,0x84,0x37,0x28,0x03,0x94,0x32,0x40,0x0d,0x84,0x32
,0x28,0x03,0x94,0x37,0x40,0x0d,0x84,0x37,0x28,0x03,0x94,0x32,0x40,0x3d,0x84,0x32
,0x28,0x03,0x94,0x37,0x40,0x3d,0x84,0x37,0x28,0x03,0x94,0x32,0x40,0x1d,0x84,0x32
,0x28,0x03,0x94,0x30,0x40,0x3d,0x84,0x30,0x28,0x03,0x94,0x33,0x40,0x3d,0x84,0x33
,0x28,0x03,0x94,0x30,0x40,0x3d,0x84,0x30,0x28,0x03,0x94,0x35,0x40,0x3d,0x84,0x35
,0x28,0x03,0x94,0x33,0x40,0x1d,0x84,0x33,0x28,0x03,0x94,0x39,0x40,0x3d,0x84,0x39
,0x28,0x03,0x94,0x35,0x40,0x1d,0x84,0x35,0x28,0x03,0x94,0x30,0x40,0x3d,0x84,0x30
,0x28,0x03,0x94,0x37,0x40,0x3d,0x84,0x37,0x28,0x03,0x94,0x30,0x40,0x3d,0x84,0x30
,0x28,0x03,0x94,0x37,0x40,0x3d,0x84,0x37,0x28,0x03,0x94,0x30,0x40,0x3d,0x84,0x30
,0x28,0x03,0x94,0x37,0x40,0x3d,0x84,0x37,0x28,0x03,0x94,0x2b,0x40,0x3d,0x84,0x2b
,0x28,0x03,0x94,0x32,0x40,0x3d,0x84,0x32,0x28,0x03,0x94,0x37,0x40,0x3d,0x84,0x37
,0x28,0x03,0x94,0x2b,0x40,0x3d,0x84,0x2b,0x28,0x03,0x94,0x32,0x40,0x3d,0x84,0x32
,0x28,0x03,0x94,0x37,0x40,0x1d,0x84,0x37,0x28,0x03,0x94,0x32,0x40,0x1d,0x84,0x32
,0x28,0x03,0x94,0x2b,0x40,0x3d,0x84,0x2b,0x28,0x03,0x94,0x32,0x40,0x3d,0x84,0x32
,0x28,0x03,0x94,0x37,0x40,0x3d,0x84,0x37,0x28,0x03,0x94,0x2b,0x40,0x1d,0x84,0x2b
,0x28,0x03,0x94,0x32,0x40,0x3d,0x84,0x32,0x28,0x03,0x94,0x2b,0x40,0x3d,0x84,0x2b
,0x28,0x03,0x94,0x37,0x40,0x1d,0x84,0x37,0x28,0x03,0x94,0x30,0x40,0x3d,0x84,0x30
,0x28,0x03,0x94,0x37,0x40,0x3d,0x84,0x37,0x28,0x03,0x94,0x30,0x40,0x3d,0x84,0x30
,0x28,0x03,0x94,0x37,0x40,0x3d,0x84,0x37,0x28,0x03,0x94,0x30,0x40,0x3d,0x84,0x30
,0x28,0x03,0x94,0x37,0x40,0x1d,0x84,0x37,0x28,0x03,0x94,0x30,0x40,0x1d,0x84,0x30
,0x28,0x03,0x94,0x2b,0x40,0x3d,0x84,0x2b,0x28,0x03,0x94,0x32,0x40,0x3d,0x84,0x32
,0x28,0x03,0x94,0x37,0x40,0x3d,0x84,0x37,0x28,0x03,0x94,0x32,0x40,0x0d,0x84,0x32
,0x28,0x03,0x94,0x37,0x40,0x0d,0x84,0x37,0x28,0x03,0x94,0x32,0x40,0x3d,0x84,0x32
,0x28,0x03,0x94,0x37,0x40,0x3d,0x84,0x37,0x28,0x03,0x94,0x32,0x40,0x1d,0x84,0x32
,0x28,0x03,0x94,0x30,0x40,0x3d,0x84,0x30,0x28,0x03,0x94,0x33,0x40,0x3d,0x84,0x33
,0x28,0x03,0x94,0x30,0x40,0x3d,0x84,0x30,0x28,0x03,0x94,0x35,0x40,0x3d,0x84,0x35
,0x28,0x03,0x94,0x33,0x40,0x1d,0x84,0x33,0x28,0x03,0x94,0x39,0x40,0x3d,0x84,0x39
,0x28,0x03,0x94,0x35,0x40,0x1d,0x84,0x35,0x28,0x03,0x94,0x30,0x40,0x3d,0x84,0x30
,0x28,0x03,0x94,0x37,0x40,0x3d,0x84,0x37,0x28,0x03,0x94,0x30,0x40,0x3d,0x84,0x30
,0x28,0x03,0x94,0x37,0x40,0x3d,0x84,0x37,0x28,0x03,0x94,0x30,0x40,0x3d,0x84,0x30
,0x28,0x03,0x94,0x37,0x40,0x3d,0x84,0x37,0x28,0x03,0x94,0x2b,0x40,0x3d,0x84,0x2b
,0x28,0x03,0x94,0x32,0x40,0x3d,0x84,0x32,0x28,0x03,0x94,0x37,0x40,0x3d,0x84,0x37
,0x28,0x03,0x94,0x2b,0x40,0x3d,0x84,0x2b,0x28,0x03,0x94,0x32,0x40,0x3d,0x84,0x32
,0x28,0x03,0x94,0x37,0x40,0x1d,0x84,0x37,0x28,0x03,0x94,0x32,0x40,0x1d,0x84,0x32
,0x28,0x03,0x94,0x2b,0x40,0x3d,0x84,0x2b,0x28,0x03,0x94,0x32,0x40,0x3d,0x84,0x32
,0x28,0x03,0x94,0x37,0x40,0x3d,0x84,0x37,0x28,0x03,0x94,0x2b,0x40,0x1d,0x84,0x2b
,0x28,0x03,0x94,0x32,0x40,0x3d,0x84,0x32,0x28,0x03,0x94,0x2b,0x40,0x3d,0x84,0x2b
,0x28,0x03,0x94,0x37,0x40,0x1d,0x84,0x37,0x28,0x82,0x03,0x94,0x43,0x40,0x3d,0x84
,0x43,0x28,0x03,0x94,0x46,0x40,0x3d,0x84,0x46,0x28,0x03,0x94,0x3c,0x40,0x3d,0x84
,0x3c,0x28,0x03,0x94,0x35,0x40,0x3d,0x84,0x35,0x28,0x03,0x94,0x3f,0x40,0x3d,0x84
,0x3f,0x28,0x03,0x94,0x41,0x40,0x3d,0x84,0x41,0x28,0x03,0x94,0x45,0x40,0x3d,0x84
,0x45,0x28,0x03,0x94,0x41,0x40,0x1d,0x84,0x41,0x28,0x03,0x94,0x45,0x40,0x1d,0x84
,0x45,0x28,0x03,0x94,0x3c,0x40,0x3d,0x84,0x3c,0x28,0x03,0x94,0x35,0x40,0x1d,0x84
,0x35,0x28,0x03,0x94,0x3c,0x40,0x3d,0x84,0x3c,0x28,0x03,0x94,0x3f,0x40,0x1d,0x84
,0x3f,0x28,0x03,0x94,0x41,0x40,0x3d,0x84,0x41,0x28,0x03,0x94,0x45,0x40,0x3d,0x84
,0x45,0x28,0x03,0x94,0x41,0x40,0x3d,0x84,0x41,0x28,0x03,0x94,0x3e,0x40,0x3d,0x84
,0x3e,0x28,0x03,0x94,0x37,0x40,0x3d,0x84,0x37,0x28,0x03,0x94,0x3e,0x40,0x0d,0x84
,0x3e,0x28,0x03,0x94,0x37,0x40,0x0d,0x84,0x37,0x28,0x03,0x94,0x43,0x40,0x3d,0x84
,0x43,0x28,0x03,0x94,0x3e,0x40,0x3d,0x84,0x3e,0x28,0x03,0x94,0x43,0x40,0x3d,0x84
,0x43,0x28,0x03,0x94,0x4a,0x40,0x1d,0x84,0x4a,0x28,0x03,0x94,0x30,0x40,0x3d,0x84
,0x30,0x28,0x03,0x94,0x3c,0x40,0x3d,0x84,0x3c,0x28,0x03,0x94,0x35,0x40,0x3d,0x84
,0x35,0x28,0x03,0x94,0x2b,0x40,0x3d,0x84,0x2b,0x28,0x03,0x94,0x32,0x40,0x3d,0x84
,0x32,0x28,0x03,0x94,0x37,0x40,0x3d,0x84,0x37,0x28,0x03,0x94,0x30,0x40,0x3d,0x84
,0x30,0x28,0x03,0x94,0x3c,0x40,0x3d,0x84,0x3c,0x28,0x03,0x94,0x35,0x40,0x3d,0x84
,0x35,0x28,0x03,0x94,0x2b,0x40,0x3d,0x84,0x2b,0x28,0x03,0x94,0x32,0x40,0x3d,0x84
,0x32,0x28,0x03,0x94,0x37,0x40,0x3d,0x84,0x37,0x28,0x03,0x94,0x30,0x40,0x3d,0x84
,0x30,0x28,0x03,0x94,0x3c,0x40,0x3d,0x84,0x3c,0x28,0x03,0x94,0x35,0x40,0x3d,0x84
,0x35,0x28,0x03,0x94,0x2b,0x40,0x3d,0x84,0x2b,0x28,0x03,0x94,0x32,0x40,0x3d,0x84
,0x32,0x28,0x03,0x94,0x37,0x40,0x3d,0x84,0x37,0x28,0x03,0x94,0x30,0x40,0x3d,0x84
,0x30,0x28,0x03,0x94,0x3c,0x40,0x3d,0x84,0x3c,0x28,0x03,0x94,0x35,0x40,0x3d,0x84
,0x35,0x28,0x03,0x94,0x2b,0x40,0x3d,0x84,0x2b,0x28,0x03,0x94,0x32,0x40,0x3d,0x84
,0x32,0x28,0x03,0x94,0x37,0x40,0x3d,0x84,0x37,0x28,0x03,0x94,0x37,0x40,0x5d,0x84
,0x37,0x28,0x03,0x94,0x3c,0x30,0x81,0x3d,0x84,0x3c,0x28,0x00,0xff,0x2f,0x00,0x4d
,0x54,0x72,0x6b,0x00,0x00,0x08,0x3a,0x00,0xb2,0x00,0x00,0x00,0xc2,0x20,0x00,0xb2
,0x07,0x6e,0x00,0xb2,0x5b,0x3c,0x00,0xb2,0x5d,0x00,0x00,0xb2,0x4a,0x40,0x83,0x00
,0x92,0x24,0x40,0x3e,0x82,0x24,0x28,0x01,0x92,0x24,0x40,0x20,0x82,0x24,0x28,0x01
,0x92,0x26,0x40,0x00,0xb2,0x65,0x00,0x00,0xb2,0x64,0x00,0x00,0xb2,0x06,0x0c,0x00
,0xe2,0x44,0x3a,0x0f,0xe2,0x00,0x40,0x4f,0x82,0x26,0x28,0x02,0x92,0x27,0x40,0x5e
,0x82,0x27,0x28,0x02,0x92,0x28,0x40,0x00,0xb2,0x65,0x00,0x00,0xb2,0x64,0x00,0x00
,0xb2,0x06,0x0c,0x00,0xe2,0x44,0x3a,0x0f,0xe2,0x00,0x40,0x4f,0x82,0x28,0x28,0x02
,0x92,0x24,0x40,0x00,0xb2,0x65,0x00,0x00,0xb2,0x64,0x00,0x00,0xb2,0x06,0x0c,0x00
,0xe2,0x44,0x3a,0x0d,0xe2,0x00,0x40,0x51,0x82,0x24,0x28,0x02,0x92,0x26,0x40,0x00
,0xb2,0x65,0x00,0x00,0xb2,0x64,0x00,0x00,0xb2,0x06,0x0c,0x00,0xe2,0x44,0x3a,0x08
,0xe2,0x00,0x40,0x36,0x82,0x26,0x28,0x01,0x92,0x26,0x40,0x20,0x82,0x26,0x28,0x01
,0x92,0x24,0x40,0x5e,0x82,0x24,0x28,0x02,0x92,0x26,0x40,0x5e,0x82,0x26,0x28,0x02
,0x92,0x24,0x40,0x5e,0x82,0x24,0x28,0x02,0x92,0x26,0x40,0x5e,0x82,0x26,0x28,0x02
,0x92,0x27,0x40,0x5e,0x82,0x27,0x28,0x02,0x92,0x28,0x40,0x3e,0x82,0x28,0x28,0x01
,0x92,0x28,0x40,0x20,0x82,0x28,0x28,0x01,0x92,0x24,0x40,0x5e,0x82,0x24,0x28,0x02
,0x92,0x26,0x40,0x5e,0x82,0x26,0x28,0x02,0x92,0x24,0x40,0x5e,0x82,0x24,0x28,0x02
,0x92,0x26,0x40,0x00,0xb2,0x65,0x00,0x00,0xb2,0x64,0x00,0x00,0xb2,0x06,0x0c,0x00
,0xe2,0x44,0x3a,0x0a,0xe2,0x00,0x40,0x34,0x82,0x26,0x28,0x01,0x92,0x26,0x40,0x20
,0x82,0x26,0x28,0x01,0x92,0x24,0x40,0x5e,0x82,0x24,0x28,0x02,0x92,0x26,0x40,0x00
,0xb2,0x65,0x00,0x00,0xb2,0x64,0x00,0x00,0xb2,0x06,0x0c,0x00,0xe2,0x44,0x3a,0x08
,0xe2,0x00,0x40,0x36,0x82,0x26,0x28,0x01,0x92,0x26,0x40,0x20,0x82,0x26,0x28,0x01
,0x92,0x27,0x40,0x5e,0x82,0x27,0x28,0x02,0x92,0x28,0x40,0x5e,0x82,0x28,0x28,0x02
,0x92,0x24,0x40,0x5e,0x82,0x24,0x28,0x02,0x92,0x26,0x40,0x3e,0x82,0x26,0x28,0x01
,0x92,0x26,0x40,0x20,0x82,0x26,0x28,0x01,0x92,0x24,0x40,0x5e,0x82,0x24,0x28,0x02
,0x92,0x26,0x40,0x5e,0x82,0x26,0x28,0x02,0x92,0x24,0x40,0x00,0xb2,0x65,0x00,0x00
,0xb2,0x64,0x00,0x00,0xb2,0x06,0x0c,0x00,0xe2,0x44,0x3a,0x0b,0xe2,0x00,0x40,0x53
,0x82,0x24,0x28,0x02,0x92,0x26,0x40,0x00,0xb2,0x65,0x00,0x00,0xb2,0x64,0x00,0x00
,0xb2,0x06,0x0c,0x00,0xe2,0x44,0x3a,0x0b,0xe2,0x00,0x40,0x53,0x82,0x26,0x28,0x02
,0x92,0x27,0x40,0x5e,0x82,0x27,0x28,0x02,0x92,0x28,0x40,0x5e,0x82,0x28,0x28,0x02
,0x92,0x24,0x40,0x00,0xb2,0x65,0x00,0x00,0xb2,0x64,0x00,0x00,0xb2,0x06,0x0c,0x00
,0xe2,0x44,0x3a,0x0b,0xe2,0x00,0x40,0x53,0x82,0x24,0x28,0x02,0x92,0x26,0x40,0x5e
,0x82,0x26,0x28,0x02,0x92,0x24,0x40,0x5e,0x82,0x24,0x28,0x02,0x92,0x26,0x40,0x3e
,0x82,0x26,0x28,0x01,0x92,0x26,0x40,0x20,0x82,0x26,0x28,0x01,0x92,0x24,0x40,0x00
,0xb2,0x65,0x00,0x00,0xb2,0x64,0x00,0x00,0xb2,0x06,0x0c,0x00,0xe2,0x44,0x3a,0x07
,0xe2,0x00,0x40,0x37,0x82,0x24,0x28,0x01,0x92,0x24,0x40,0x20,0x82,0x24,0x28,0x01
,0x92,0x24,0x40,0x5e,0x82,0x24,0x28,0x02,0x92,0x26,0x40,0x00,0xb2,0x65,0x00,0x00
,0xb2,0x64,0x00,0x00,0xb2,0x06,0x0c,0x00,0xe2,0x44,0x3a,0x08,0xe2,0x00,0x40,0x36
,0x82,0x26,0x28,0x01,0x92,0x26,0x40,0x20,0x82,0x26,0x28,0x01,0x92,0x24,0x40,0x00
,0xb2,0x65,0x00,0x00,0xb2,0x64,0x00,0x00,0xb2,0x06,0x0c,0x00,0xe2,0x44,0x3a,0x0d
,0xe2,0x00,0x40,0x51,0x82,0x24,0x28,0x02,0x92,0x24,0x40,0x00,0xb2,0x65,0x00,0x00
,0xb2,0x64,0x00,0x00,0xb2,0x06,0x0c,0x00,0xe2,0x44,0x3a,0x0d,0xe2,0x00,0x40,0x51
,0x82,0x24,0x28,0x02,0x92,0x26,0x40,0x5e,0x82,0x26,0x28,0x02,0x92,0x28,0x40,0x3e
,0x82,0x28,0x28,0x01,0x92,0x28,0x40,0x20,0x82,0x28,0x28,0x01,0x92,0x2b,0x40,0x5e
,0x82,0x2b,0x28,0x02,0x92,0x2b,0x40,0x00,0xb2,0x65,0x00,0x00,0xb2,0x64,0x00,0x00
,0xb2,0x06,0x0c,0x00,0xe2,0x44,0x3a,0x0b,0xe2,0x00,0x40,0x53,0x82,0x2b,0x28,0x02
,0x92,0x29,0x40,0x3e,0x82,0x29,0x28,0x01,0x92,0x29,0x40,0x20,0x82,0x29,0x28,0x01
,0x92,0x27,0x40,0x00,0xb2,0x65,0x00,0x00,0xb2,0x64,0x00,0x00,0xb2,0x06,0x0c,0x00
,0xe2,0x44,0x3a,0x0d,0xe2,0x00,0x40,0x51,0x82,0x27,0x28,0x02,0x92,0x24,0x40,0x00
,0xb2,0x65,0x00,0x00,0xb2,0x64,0x00,0x00,0xb2,0x06,0x0c,0x00,0xe2,0x44,0x3a,0x0f
,0xe2,0x00,0x40,0x4f,0x82,0x24,0x28,0x02,0x92,0x29,0x40,0x3e,0x82,0x29,0x28,0x01
,0x92,0x29,0x40,0x20,0x82,0x29,0x28,0x01,0x92,0x27,0x40,0x5e,0x82,0x27,0x28,0x02
,0x92,0x24,0x40,0x5e,0x82,0x24,0x28,0x02,0x92,0x22,0x40,0x00,0xb2,0x65,0x00,0x00
,0xb2,0x64,0x00,0x00,0xb2,0x06,0x0c,0x00,0xe2,0x44,0x3a,0x0f,0xe2,0x00,0x40,0x4f
,0x82,0x22,0x28,0x02,0x92,0x24,0x40,0x00,0xb2,0x65,0x00,0x00,0xb2,0x64,0x00,0x00
,0xb2,0x06,0x0c,0x00,0xe2,0x44,0x3a,0x0d,0xe2,0x00,0x40,0x51,0x82,0x24,0x28,0x02
,0x92,0x26,0x40,0x00,0xb2,0x65,0x00,0x00,0xb2,0x64,0x00,0x00,0xb2,0x06,0x0c,0x00
,0xe2,0x44,0x3a,0x07,0xe2,0x00,0x40,0x37,0x82,0x26,0x28,0x01,0x92,0x26,0x40,0x20
,0x82,0x26,0x28,0x01,0x92,0x28,0x40,0x3e,0x82,0x28,0x28,0x01,0x92,0x28,0x40,0x20
,0x82,0x28,0x28,0x01,0x92,0x2b,0x40,0x3e,0x82,0x2b,0x28,0x01,0x92,0x2b,0x40,0x20
,0x82,0x2b,0x28,0x01,0x92,0x2b,0x40,0x00,0xb2,0x65,0x00,0x00,0xb2,0x64,0x00,0x00
,0xb2,0x06,0x0c,0x00,0xe2,0x44,0x3a,0x0d,0xe2,0x00,0x40,0x51,0x82,0x2b,0x28,0x02
,0x92,0x2c,0x40,0x00,0xb2,0x65,0x00,0x00,0xb2,0x64,0x00,0x00,0xb2,0x06,0x0c,0x00
,0xe2,0x44,0x3a,0x0b,0xe2,0x00,0x40,0x53,0x82,0x2c,0x28,0x02,0x92,0x2b,0x40,0x5e
,0x82,0x2b,0x28,0x02,0x92,0x2c,0x40,0x5e,0x82,0x2c,0x28,0x02,0x92,0x2b,0x40,0x5e
,0x82,0x2b,0x28,0x02,0x92,0x2c,0x40,0x3e,0x82,0x2c,0x28,0x01,0x92,0x2c,0x40,0x20
,0x82,0x2c,0x28,0x01,0x92,0x2b,0x40,0x3e,0x82,0x2b,0x28,0x01,0x92,0x2b,0x40,0x20
,0x82,0x2b,0x28,0x01,0x92,0x29,0x40,0x3e,0x82,0x29,0x28,0x01,0x92,0x29,0x40,0x20
,0x82,0x29,0x28,0x01,0x92,0x24,0x40,0x00,0xb2,0x65,0x00,0x00,0xb2,0x64,0x00,0x00
,0xb2,0x06,0x0c,0x00,0xe2,0x44,0x3a,0x0f,0xe2,0x00,0x40,0x4f,0x82,0x24,0x28,0x02
,0x92,0x26,0x40,0x5e,0x82,0x26,0x28,0x02,0x92,0x28,0x40,0x00,0xb2,0x65,0x00,0x00
,0xb2,0x64,0x00,0x00,0xb2,0x06,0x0c,0x00,0xe2,0x44,0x3a,0x0d,0xe2,0x00,0x40,0x51
,0x82,0x28,0x28,0x02,0x92,0x2b,0x40,0x5e,0x82,0x2b,0x28,0x02,0x92,0x2b,0x40,0x3e
,0x82,0x2b,0x28,0x01,0x92,0x2b,0x40,0x20,0x82,0x2b,0x28,0x01,0x92,0x29,0x40,0x00
,0xb2,0x65,0x00,0x00,0xb2,0x64,0x00,0x00,0xb2,0x06,0x0c,0x00,0xe2,0x44,0x3a,0x0f
,0xe2,0x00,0x40,0x4f,0x82,0x29,0x28,0x02,0x92,0x27,0x40,0x5e,0x82,0x27,0x28,0x02
,0x92,0x24,0x40,0x00,0xb2,0x65,0x00,0x00,0xb2,0x64,0x00,0x00,0xb2,0x06,0x0c,0x00
,0xe2,0x44,0x3a,0x0a,0xe2,0x00,0x40,0x34,0x82,0x24,0x28,0x01,0x92,0x24,0x40,0x20
,0x82,0x24,0x28,0x01,0x92,0x29,0x40,0x5e,0x82,0x29,0x28,0x02,0x92,0x27,0x40,0x5e
,0x82,0x27,0x28,0x02,0x92,0x24,0x40,0x00,0xb2,0x65,0x00,0x00,0xb2,0x64,0x00,0x00
,0xb2,0x06,0x0c,0x00,0xe2,0x44,0x3a,0x0f,0xe2,0x00,0x40,0x4f,0x82,0x24,0x28,0x02
,0x92,0x22,0x40,0x3e,0x82,0x22,0x28,0x01,0x92,0x22,0x40,0x20,0x82,0x22,0x28,0x01
,0x92,0x24,0x40,0x5e,0x82,0x24,0x28,0x02,0x92,0x26,0x40,0x5e,0x82,0x26,0x28,0x02
,0x92,0x28,0x40,0x00,0xb2,0x65,0x00,0x00,0xb2,0x64,0x00,0x00,0xb2,0x06,0x0c,0x00
,0xe2,0x44,0x3a,0x07,0xe2,0x00,0x40,0x37,0x82,0x28,0x28,0x01,0x92,0x28,0x40,0x20
,0x82,0x28,0x28,0x01,0x92,0x2b,0x40,0x5e,0x82,0x2b,0x28,0x02,0x92,0x2b,0x40,0x3e
,0x82,0x2b,0x28,0x01,0x92,0x2b,0x40,0x20,0x82,0x2b,0x28,0x01,0x92,0x2c,0x40,0x00
,0xb2,0x65,0x00,0x00,0xb2,0x64,0x00,0x00,0xb2,0x06,0x0c,0x00,0xe2,0x44,0x3a,0x0f
,0xe2,0x00,0x40,0x4f,0x82,0x2c,0x28,0x02,0x92,0x2b,0x40,0x00,0xb2,0x65,0x00,0x00
,0xb2,0x64,0x00,0x00,0xb2,0x06,0x0c,0x00,0xe2,0x44,0x3a,0x0b,0xe2,0x00,0x40,0x53
,0x82,0x2b,0x28,0x02,0x92,0x2c,0x40,0x00,0xb2,0x65,0x00,0x00,0xb2,0x64,0x00,0x00
,0xb2,0x06,0x0c,0x00,0xe2,0x44,0x3a,0x08,0xe2,0x00,0x40,0x36,0x82,0x2c,0x28,0x01
,0x92,0x2c,0x40,0x20,0x82,0x2c,0x28,0x01,0x92,0x2b,0x40,0x00,0xb2,0x65,0x00,0x00
,0xb2,0x64,0x00,0x00,0xb2,0x06,0x0c,0x00,0xe2,0x44,0x3a,0x0b,0xe2,0x00,0x40,0x53
,0x82,0x2b,0x28,0x02,0x92,0x2c,0x40,0x3e,0x82,0x2c,0x28,0x01,0x92,0x2c,0x40,0x20
,0x82,0x2c,0x28,0x01,0x92,0x2b,0x40,0x00,0xb2,0x65,0x00,0x00,0xb2,0x64,0x00,0x00
,0xb2,0x06,0x0c,0x00,0xe2,0x44,0x3a,0x0f,0xe2,0x00,0x40,0x4f,0x82,0x2b,0x28,0x02
,0x92,0x29,0x40,0x5e,0x82,0x29,0x28,0x02,0x92,0x24,0x40,0x3e,0x82,0x24,0x28,0x01
,0x92,0x24,0x40,0x20,0x82,0x24,0x28,0x01,0x92,0x26,0x40,0x5e,0x82,0x26,0x28,0x02
,0x92,0x27,0x40,0x3e,0x82,0x27,0x28,0x01,0x92,0x27,0x40,0x20,0x82,0x27,0x28,0x01
,0x92,0x29,0x40,0x5e,0x82,0x29,0x28,0x02,0x92,0x29,0x40,0x5e,0x82,0x29,0x28,0x02
,0x92,0x2b,0x40,0x00,0xb2,0x65,0x00,0x00,0xb2,0x64,0x00,0x00,0xb2,0x06,0x0c,0x00
,0xe2,0x44,0x3a,0x0d,0xe2,0x00,0x40,0x51,0x82,0x2b,0x28,0x02,0x92,0x2c,0x40,0x5e
,0x82,0x2c,0x28,0x02,0x92,0x2d,0x40,0x00,0xb2,0x65,0x00,0x00,0xb2,0x64,0x00,0x00
,0xb2,0x06,0x0c,0x00,0xe2,0x44,0x3a,0x0d,0xe2,0x00,0x40,0x51,0x82,0x2d,0x28,0x02
,0x92,0x29,0x40,0x00,0xb2,0x65,0x00,0x00,0xb2,0x64,0x00,0x00,0xb2,0x06,0x0c,0x00
,0xe2,0x44,0x3a,0x0d,0xe2,0x00,0x40,0x51,0x82,0x29,0x28,0x02,0x92,0x2b,0x40,0x00
,0xb2,0x65,0x00,0x00,0xb2,0x64,0x00,0x00,0xb2,0x06,0x0c,0x00,0xe2,0x44,0x3a,0x0b
,0xe2,0x00,0x40,0x53,0x82,0x2b,0x28,0x02,0x92,0x2c,0x40,0x5e,0x82,0x2c,0x28,0x02
,0x92,0x2d,0x40,0x5e,0x82,0x2d,0x28,0x02,0x92,0x2b,0x40,0x00,0xb2,0x65,0x00,0x00
,0xb2,0x64,0x00,0x00,0xb2,0x06,0x0c,0x00,0xe2,0x44,0x3a,0x0b,0xe2,0x00,0x40,0x53
,0x82,0x2b,0x28,0x02,0x92,0x29,0x40,0x5e,0x82,0x29,0x28,0x02,0x92,0x27,0x40,0x5e
,0x82,0x27,0x28,0x02,0x92,0x24,0x40,0x3e,0x82,0x24,0x28,0x01,0x92,0x24,0x40,0x20
,0x82,0x24,0x28,0x01,0x92,0x29,0x40,0x3e,0x82,0x29,0x28,0x01,0x92,0x29,0x40,0x20
,0x82,0x29,0x28,0x01,0x92,0x2b,0x40,0x5e,0x82,0x2b,0x28,0x02,0x92,0x2b,0x40,0x00
,0xb2,0x65,0x00,0x00,0xb2,0x64,0x00,0x00,0xb2,0x06,0x0c,0x00,0xe2,0x44,0x3a,0x0b
,0xe2,0x00,0x40,0x53,0x82,0x2b,0x28,0x02,0x92,0x29,0x40,0x3e,0x82,0x29,0x28,0x01
,0x92,0x29,0x40,0x20,0x82,0x29,0x28,0x01,0x92,0x29,0x40,0x00,0xb2,0x65,0x00,0x00
,0xb2,0x64,0x00,0x00,0xb2,0x06,0x0c,0x00,0xe2,0x44,0x3a,0x0b,0xe2,0x00,0x40,0x53
,0x82,0x29,0x28,0x02,0x92,0x2b,0x40,0x5e,0x82,0x2b,0x28,0x02,0x92,0x2b,0x40,0x00
,0xb2,0x65,0x00,0x00,0xb2,0x64,0x00,0x00,0xb2,0x06,0x0c,0x00,0xe2,0x44,0x3a,0x08
,0xe2,0x00,0x40,0x36,0x82,0x2b,0x28,0x01,0x92,0x2b,0x40,0x20,0x82,0x2b,0x28,0x01
,0x92,0x29,0x40,0x5e,0x82,0x29,0x28,0x02,0x92,0x29,0x40,0x00,0xb2,0x65,0x00,0x00
,0xb2,0x64,0x00,0x00,0xb2,0x06,0x0c,0x00,0xe2,0x44,0x3a,0x0f,0xe2,0x00,0x40,0x4f
,0x82,0x29,0x28,0x02,0x92,0x2b,0x40,0x00,0xb2,0x65,0x00,0x00,0xb2,0x64,0x00,0x00
,0xb2,0x06,0x0c,0x00,0xe2,0x44,0x3a,0x08,0xe2,0x00,0x40,0x36,0x82,0x2b,0x28,0x01
,0x92,0x2b,0x40,0x20,0x82,0x2b,0x28,0x01,0x92,0x2b,0x40,0x5e,0x82,0x2b,0x28,0x02
,0x92,0x29,0x40,0x3e,0x82,0x29,0x28,0x01,0x92,0x29,0x40,0x20,0x82,0x29,0x28,0x01
,0x92,0x29,0x40,0x5e,0x82,0x29,0x28,0x02,0x92,0x2b,0x40,0x5e,0x82,0x2b,0x28,0x02
,0x92,0x2b,0x40,0x3e,0x82,0x2b,0x28,0x01,0x92,0x2b,0x40,0x20,0x82,0x2b,0x28,0x01
,0x92,0x29,0x40,0x00,0xb2,0x65,0x00,0x00,0xb2,0x64,0x00,0x00,0xb2,0x06,0x0c,0x00
,0xe2,0x44,0x3a,0x0f,0xe2,0x00,0x40,0x4f,0x82,0x29,0x28,0x02,0x92,0x18,0x40,0x81
,0x3c,0x82,0x18,0x28,0x04,0x92,0x24,0x40,0x81,0x3c,0x82,0x24,0x28,0x00,0xff,0x2f
,0x00,0x4d,0x54,0x72,0x6b,0x00,0x00,0x0d,0x65,0x00,0xb9,0x07,0x64,0x00,0xb9,0x5b
,0x3c,0x00,0xb9,0x5d,0x00,0x00,0xb9,0x4a,0x40,0x83,0x00,0x99,0x33,0x28,0x1f,0x89
,0x33,0x43,0x01,0x99,0x2a,0x00,0x1f,0x89,0x2a,0x00,0x01,0x99,0x2a,0x00,0x1f,0x89
,0x2a,0x00,0x01,0x99,0x26,0x3c,0x00,0x99,0x33,0x2d,0x1f,0x89,0x26,0x3c,0x00,0x89
,0x33,0x3c,0x01,0x99,0x33,0x40,0x1f,0x89,0x33,0x40,0x01,0x99,0x3b,0x39,0x1f,0x89
,0x3b,0x32,0x01,0x99,0x3b,0x22,0x1f,0x89,0x3b,0x1f,0x01,0x99,0x2a,0x00,0x1f,0x89
,0x2a,0x00,0x01,0x99,0x2a,0x00,0x1f,0x89,0x2a,0x00,0x01,0x99,0x26,0x38,0x00,0x99
,0x33,0x23,0x1f,0x89,0x26,0x3c,0x00,0x89,0x33,0x3c,0x01,0x99,0x2a,0x00,0x1f,0x89
,0x2a,0x00,0x01,0x99,0x26,0x50,0x1f,0x89,0x26,0x50,0x01,0x99,0x3b,0x25,0x1f,0x89
,0x3b,0x45,0x01,0x99,0x2a,0x00,0x1f,0x89,0x2a,0x00,0x01,0x99,0x2a,0x00,0x1f,0x89
,0x2a,0x00,0x01,0x99,0x33,0x26,0x1f,0x89,0x33,0x44,0x01,0x99,0x2a,0x00,0x1f,0x89
,0x2a,0x00,0x01,0x99,0x3b,0x2c,0x1f,0x89,0x3b,0x3d,0x01,0x99,0x23,0x1b,0x00,0x99
,0x33,0x27,0x1f,0x89,0x23,0x0a,0x00,0x89,0x33,0x3c,0x01,0x99,0x2a,0x00,0x1f,0x89
,0x2a,0x00,0x01,0x99,0x2a,0x00,0x1f,0x89,0x2a,0x00,0x01,0x99,0x26,0x29,0x00,0x99
,0x33,0x45,0x1f,0x89,0x26,0x3c,0x00,0x89,0x33,0x3c,0x01,0x99,0x2a,0x00,0x1f,0x89
,0x2a,0x00,0x01,0x99,0x3b,0x30,0x1f,0x89,0x3b,0x34,0x01,0x99,0x23,0x5a,0x1f,0x89
,0x23,0x5a,0x01,0x99,0x33,0x2e,0x1f,0x89,0x33,0x26,0x01,0x99,0x2a,0x00,0x1f,0x89
,0x2a,0x00,0x01,0x99,0x3b,0x36,0x1f,0x89,0x3b,0x32,0x01,0x99,0x2a,0x00,0x1f,0x89
,0x2a,0x00,0x01,0x99,0x23,0x11,0x00,0x99,0x33,0x37,0x1f,0x89,0x23,0x0a,0x00,0x89
,0x33,0x3c,0x01,0x99,0x3b,0x37,0x1f,0x89,0x3b,0x34,0x01,0x99,0x2a,0x00,0x1f,0x89
,0x2a,0x00,0x01,0x99,0x2a,0x00,0x1f,0x89,0x2a,0x00,0x01,0x99,0x33,0x2e,0x1f,0x89
,0x33,0x35,0x01,0x99,0x3b,0x28,0x1f,0x89,0x3b,0x3c,0x01,0x99,0x3b,0x41,0x1f,0x89
,0x3b,0x28,0x01,0x99,0x23,0x5a,0x1f,0x89,0x23,0x5a,0x01,0x99,0x33,0x3e,0x1f,0x89
,0x33,0x33,0x01,0x99,0x2a,0x00,0x1f,0x89,0x2a,0x00,0x01,0x99,0x26,0x2f,0x00,0x99
,0x33,0x3c,0x1f,0x89,0x26,0x3c,0x00,0x89,0x33,0x3c,0x01,0x99,0x33,0x3a,0x1f,0x89
,0x33,0x3d,0x01,0x99,0x26,0x29,0x00,0x99,0x3b,0x44,0x1f,0x89,0x26,0x3c,0x00,0x89
,0x3b,0x3c,0x01,0x99,0x23,0x1e,0x00,0x99,0x33,0x36,0x1f,0x89,0x23,0x0a,0x00,0x89
,0x33,0x3c,0x01,0x99,0x2a,0x00,0x1f,0x89,0x2a,0x00,0x01,0x99,0x2a,0x00,0x1f,0x89
,0x2a,0x00,0x01,0x99,0x26,0x3a,0x00,0x99,0x3b,0x23,0x1f,0x89,0x26,0x3c,0x00,0x89
,0x3b,0x3c,0x01,0x99,0x2a,0x00,0x1f,0x89,0x2a,0x00,0x01,0x99,0x23,0x19,0x00,0x99
,0x33,0x2c,0x1f,0x89,0x23,0x0a,0x00,0x89,0x33,0x3c,0x01,0x99,0x23,0x11,0x00,0x99
,0x3b,0x2e,0x1f,0x89,0x23,0x0a,0x00,0x89,0x3b,0x3c,0x01,0x99,0x3b,0x38,0x1f,0x89
,0x3b,0x41,0x01,0x99,0x2a,0x00,0x1f,0x89,0x2a,0x00,0x01,0x99,0x3b,0x31,0x1f,0x89
,0x3b,0x3f,0x01,0x99,0x2a,0x00,0x1f,0x89,0x2a,0x00,0x01,0x99,0x33,0x24,0x1f,0x89
,0x33,0x28,0x01,0x99,0x23,0x0e,0x00,0x99,0x33,0x3e,0x1f,0x89,0x23,0x0a,0x00,0x89
,0x33,0x3c,0x01,0x99,0x2a,0x00,0x1f,0x89,0x2a,0x00,0x01,0x99,0x2a,0x00,0x1f,0x89
,0x2a,0x00,0x01,0x99,0x3b,0x39,0x1f,0x89,0x3b,0x45,0x01,0x99,0x2a,0x00,0x1f,0x89
,0x2a,0x00,0x01,0x99,0x33,0x3e,0x1f,0x89,0x33,0x33,0x01,0x99,0x23,0x0e,0x00,0x99
,0x33,0x40,0x1f,0x89,0x23,0x0a,0x00,0x89,0x33,0x3c,0x01,0x99,0x33,0x3d,0x1f,0x89
,0x33,0x29,0x01,0x99,0x2a,0x00,0x1f,0x89,0x2a,0x00,0x01,0x99,0x3b,0x42,0x1f,0x89
,0x3b,0x29,0x01,0x99,0x2a,0x00,0x1f,0x89,0x2a,0x00,0x01,0x99,0x26,0x32,0x00,0x99
,0x3b,0x2a,0x1f,0x89,0x26,0x3c,0x00,0x89,0x3b,0x3c,0x01,0x99,0x33,0x45,0x1f,0x89
,0x33,0x36,0x01,0x99,0x2a,0x00,0x1f,0x89,0x2a,0x00,0x01,0x99,0x2a,0x00,0x1f,0x89
,0x2a,0x00,0x01,0x99,0x3b,0x37,0x1f,0x89,0x3b,0x30,0x01,0x99,0x3b,0x24,0x1f,0x89
,0x3b,0x40,0x01,0x99,0x3b,0x31,0x1f,0x89,0x3b,0x35,0x01,0x99,0x23,0x5a,0x1f,0x89
,0x23,0x5a,0x01,0x99,0x2a,0x00,0x1f,0x89,0x2a,0x00,0x01,0x99,0x2a,0x00,0x1f,0x89
,0x2a,0x00,0x01,0x99,0x26,0x31,0x00,0x99,0x3b,0x33,0x1f,0x89,0x26,0x3c,0x00,0x89
,0x3b,0x3c,0x01,0x99,0x2a,0x00,0x1f,0x89,0x2a,0x00,0x01,0x99,0x33,0x2d,0x1f,0x89
,0x33,0x3f,0x01,0x99,0x23,0x12,0x00,0x99,0x3b,0x29,0x1f,0x89,0x23,0x0a,0x00,0x89
,0x3b,0x3c,0x01,0x99,0x2a,0x00,0x1f,0x89,0x2a,0x00,0x01,0x99,0x2a,0x00,0x1f,0x89
,0x2a,0x00,0x01,0x99,0x26,0x33,0x00,0x99,0x3b,0x3c,0x1f,0x89,0x26,0x3c,0x00,0x89
,0x3b,0x3c,0x01,0x99,0x2a,0x00,0x1f,0x89,0x2a,0x00,0x01,0x99,0x26,0x2f,0x00,0x99
,0x33,0x22,0x1f,0x89,0x26,0x3c,0x00,0x89,0x33,0x3c,0x01,0x99,0x23,0x1a,0x00,0x99
,0x33,0x3e,0x1f,0x89,0x23,0x0a,0x00,0x89,0x33,0x3c,0x01,0x99,0x2a,0x00,0x1f,0x89
,0x2a,0x00,0x01,0x99,0x2a,0x00,0x1f,0x89,0x2a,0x00,0x01,0x99,0x25,0x5a,0x1f,0x89
,0x25,0x5a,0x01,0x99,0x3b,0x22,0x1f,0x89,0x3b,0x22,0x01,0x99,0x3b,0x3b,0x1f,0x89
,0x3b,0x28,0x01,0x99,0x23,0x12,0x00,0x99,0x3b,0x3a,0x1f,0x89,0x23,0x0a,0x00,0x89
,0x3b,0x3c,0x01,0x99,0x2a,0x00,0x1f,0x89,0x2a,0x00,0x01,0x99,0x2a,0x00,0x1f,0x89
,0x2a,0x00,0x01,0x99,0x3b,0x42,0x1f,0x89,0x3b,0x34,0x01,0x99,0x2a,0x00,0x1f,0x89
,0x2a,0x00,0x01,0x99,0x26,0x35,0x00,0x99,0x33,0x23,0x1f,0x89,0x26,0x3c,0x00,0x89
,0x33,0x3c,0x01,0x99,0x3b,0x34,0x1f,0x89,0x3b,0x44,0x01,0x99,0x2a,0x00,0x1f,0x89
,0x2a,0x00,0x01,0x99,0x2a,0x00,0x1f,0x89,0x2a,0x00,0x01,0x99,0x23,0x1c,0x00,0x99
,0x33,0x38,0x1f,0x89,0x23,0x0a,0x00,0x89,0x33,0x3c,0x01,0x99,0x2a,0x00,0x1f,0x89
,0x2a,0x00,0x01,0x99,0x2a,0x00,0x1f,0x89,0x2a,0x00,0x01,0x99,0x25,0x5a,0x1f,0x89
,0x25,0x5a,0x01,0x99,0x33,0x26,0x1f,0x89,0x33,0x22,0x01,0x99,0x23,0x1a,0x00,0x99
,0x3b,0x3d,0x1f,0x89,0x23,0x0a,0x00,0x89,0x3b,0x3c,0x01,0x99,0x23,0x10,0x00,0x99
,0x3b,0x2f,0x1f,0x89,0x23,0x0a,0x00,0x89,0x3b,0x3c,0x01,0x99,0x2a,0x00,0x1f,0x89
,0x2a,0x00,0x01,0x99,0x2a,0x00,0x1f,0x89,0x2a,0x00,0x01,0x99,0x23,0x0d,0x00,0x99
,0x33,0x43,0x1f,0x89,0x23,0x0a,0x00,0x89,0x33,0x3c,0x01,0x99,0x2a,0x00,0x1f,0x89
,0x2a,0x00,0x01,0x99,0x2a,0x00,0x1f,0x89,0x2a,0x00,0x01,0x99,0x25,0x5a,0x1f,0x89
,0x25,0x5a,0x01,0x99,0x2a,0x00,0x1f,0x89,0x2a,0x00,0x01,0x99,0x26,0x3a,0x00,0x99
,0x33,0x35,0x1f,0x89,0x26,0x3c,0x00,0x89,0x33,0x3c,0x01,0x99,0x23,0x5a,0x1f,0x89
,0x23,0x5a,0x01,0x99,0x2a,0x00,0x1f,0x89,0x2a,0x00,0x01,0x99,0x2a,0x00,0x1f,0x89
,0x2a,0x00,0x01,0x99,0x26,0x35,0x00,0x99,0x33,0x2c,0x1f,0x89,0x26,0x3c,0x00,0x89
,0x33,0x3c,0x01,0x99,0x2a,0x00,0x1f,0x89,0x2a,0x00,0x01,0x99,0x33,0x1f,0x1f,0x89
,0x33,0x1f,0x01,0x99,0x33,0x40,0x1f,0x89,0x33,0x35,0x01,0x99,0x2a,0x00,0x1f,0x89
,0x2a,0x00,0x01,0x99,0x2a,0x00,0x1f,0x89,0x2a,0x00,0x01,0x99,0x3b,0x25,0x1f,0x89
,0x3b,0x31,0x01,0x99,0x2a,0x00,0x1f,0x89,0x2a,0x00,0x01,0x99,0x33,0x31,0x1f,0x89
,0x33,0x21,0x01,0x99,0x23,0x16,0x00,0x99,0x33,0x2c,0x1f,0x89,0x23,0x0a,0x00,0x89
,0x33,0x3c,0x01,0x99,0x2a,0x00,0x1f,0x89,0x2a,0x00,0x01,0x99,0x2a,0x00,0x1f,0x89
,0x2a,0x00,0x01,0x99,0x3b,0x3c,0x1f,0x89,0x3b,0x21,0x01,0x99,0x2a,0x00,0x1f,0x89
,0x2a,0x00,0x01,0x99,0x3b,0x25,0x1f,0x89,0x3b,0x32,0x01,0x99,0x33,0x34,0x1f,0x89
,0x33,0x25,0x01,0x99,0x2a,0x00,0x1f,0x89,0x2a,0x00,0x01,0x99,0x2a,0x00,0x1f,0x89
,0x2a,0x00,0x01,0x99,0x26,0x31,0x00,0x99,0x3b,0x3b,0x1f,0x89,0x26,0x3c,0x00,0x89
,0x3b,0x3c,0x01,0x99,0x2a,0x00,0x1f,0x89,0x2a,0x00,0x01,0x99,0x3b,0x42,0x1f,0x89
,0x3b,0x43,0x01,0x99,0x23,0x5a,0x1f,0x89,0x23,0x5a,0x01,0x99,0x2a,0x00,0x1f,0x89
,0x2a,0x00,0x01,0x99,0x2a,0x00,0x1f,0x89,0x2a,0x00,0x01,0x99,0x26,0x30,0x00,0x99
,0x3b,0x39,0x1f,0x89,0x26,0x3c,0x00,0x89,0x3b,0x3c,0x01,0x99,0x2a,0x00,0x1f,0x89
,0x2a,0x00,0x01,0x99,0x33,0x3a,0x1f,0x89,0x33,0x3e,0x01,0x99,0x23,0x5a,0x1f,0x89
,0x23,0x5a,0x01,0x99,0x2a,0x00,0x1f,0x89,0x2a,0x00,0x01,0x99,0x2a,0x00,0x1f,0x89
,0x2a,0x00,0x01,0x99,0x26,0x36,0x00,0x99,0x33,0x3c,0x1f,0x89,0x26,0x3c,0x00,0x89
,0x33,0x3c,0x01,0x99,0x2a,0x00,0x1f,0x89,0x2a,0x00,0x01,0x99,0x33,0x2b,0x1f,0x89
,0x33,0x41,0x01,0x99,0x23,0x0c,0x00,0x99,0x3b,0x37,0x1f,0x89,0x23,0x0a,0x00,0x89
,0x3b,0x3c,0x01,0x99,0x2a,0x00,0x1f,0x89,0x2a,0x00,0x01,0x99,0x2a,0x00,0x1f,0x89
,0x2a,0x00,0x01,0x99,0x26,0x35,0x00,0x99,0x33,0x41,0x1f,0x89,0x26,0x3c,0x00,0x89
,0x33,0x3c,0x01,0x99,0x2a,0x00,0x1f,0x89,0x2a,0x00,0x01,0x99,0x3b,0x2b,0x1f,0x89
,0x3b,0x40,0x01,0x99,0x23,0x5a,0x1f,0x89,0x23,0x5a,0x01,0x99,0x2a,0x00,0x1f,0x89
,0x2a,0x00,0x01,0x99,0x2a,0x00,0x1f,0x89,0x2a,0x00,0x01,0x99,0x26,0x38,0x00,0x99
,0x33,0x46,0x1f,0x89,0x26,0x3c,0x00,0x89,0x33,0x3c,0x01,0x99,0x2a,0x00,0x1f,0x89
,0x2a,0x00,0x01,0x99,0x26,0x2b,0x00,0x99,0x3b,0x45,0x1f,0x89,0x26,0x3c,0x00,0x89
,0x3b,0x3c,0x01,0x99,0x23,0x0c,0x00,0x99,0x3b,0x42,0x1f,0x89,0x23,0x0a,0x00,0x89
,0x3b,0x3c,0x01,0x99,0x2a,0x00,0x1f,0x89,0x2a,0x00,0x01,0x99,0x2a,0x00,0x1f,0x89
,0x2a,0x00,0x01,0x99,0x26,0x30,0x00,0x99,0x33,0x34,0x1f,0x89,0x26,0x3c,0x00,0x89
,0x33,0x3c,0x01,0x99,0x2a,0x00,0x1f,0x89,0x2a,0x00,0x01,0x99,0x23,0x13,0x00,0x99
,0x3b,0x42,0x1f,0x89,0x23,0x0a,0x00,0x89,0x3b,0x3c,0x01,0x99,0x23,0x16,0x00,0x99
,0x33,0x36,0x1f,0x89,0x23,0x0a,0x00,0x89,0x33,0x3c,0x01,0x99,0x2a,0x00,0x1f,0x89
,0x2a,0x00,0x01,0x99,0x2a,0x00,0x1f,0x89,0x2a,0x00,0x01,0x99,0x3b,0x21,0x1f,0x89
,0x3b,0x22,0x01,0x99,0x2a,0x00,0x1f,0x89,0x2a,0x00,0x01,0x99,0x33,0x35,0x1f,0x89
,0x33,0x40,0x01,0x99,0x23,0x5a,0x1f,0x89,0x23,0x5a,0x01,0x99,0x2a,0x00,0x1f,0x89
,0x2a,0x00,0x01,0x99,0x2a,0x00,0x1f,0x89,0x2a,0x00,0x01,0x99,0x26,0x2b,0x00,0x99
,0x3b,0x23,0x1f,0x89,0x26,0x3c,0x00,0x89,0x3b,0x3c,0x01,0x99,0x2a,0x00,0x1f,0x89
,0x2a,0x00,0x01,0x99,0x33,0x24,0x1f,0x89,0x33,0x37,0x01,0x99,0x3b,0x2c,0x1f,0x89
,0x3b,0x41,0x01,0x99,0x33,0x34,0x1f,0x89,0x33,0x2a,0x01,0x99,0x2a,0x00,0x1f,0x89
,0x2a,0x00,0x01,0x99,0x33,0x32,0x1f,0x89,0x33,0x38,0x01,0x99,0x2a,0x00,0x1f,0x89
,0x2a,0x00,0x01,0x99,0x23,0x19,0x00,0x99,0x33,0x41,0x1f,0x89,0x23,0x0a,0x00,0x89
,0x33,0x3c,0x01,0x99,0x33,0x44,0x1f,0x89,0x33,0x3a,0x01,0x99,0x2a,0x00,0x1f,0x89
,0x2a,0x00,0x01,0x99,0x2a,0x00,0x1f,0x89,0x2a,0x00,0x01,0x99,0x25,0x5a,0x1f,0x89
,0x25,0x5a,0x01,0x99,0x33,0x36,0x1f,0x89,0x33,0x35,0x01,0x99,0x33,0x3d,0x1f,0x89
,0x33,0x2a,0x01,0x99,0x23,0x17,0x00,0x99,0x3b,0x21,0x1f,0x89,0x23,0x0a,0x00,0x89
,0x3b,0x3c,0x01,0x99,0x2a,0x00,0x1f,0x89,0x2a,0x00,0x01,0x99,0x2a,0x00,0x1f,0x89
,0x2a,0x00,0x01,0x99,0x33,0x44,0x1f,0x89,0x33,0x28,0x01,0x99,0x33,0x30,0x1f,0x89
,0x33,0x3a,0x01,0x99,0x3b,0x20,0x1f,0x89,0x3b,0x44,0x01,0x99,0x23,0x18,0x00,0x99
,0x33,0x2e,0x1f,0x89,0x23,0x0a,0x00,0x89,0x33,0x3c,0x01,0x99,0x2a,0x00,0x1f,0x89
,0x2a,0x00,0x01,0x99,0x2a,0x00,0x1f,0x89,0x2a,0x00,0x01,0x99,0x26,0x34,0x00,0x99
,0x33,0x41,0x1f,0x89,0x26,0x3c,0x00,0x89,0x33,0x3c,0x01,0x99,0x2a,0x00,0x1f,0x89
,0x2a,0x00,0x01,0x99,0x23,0x14,0x00,0x99,0x33,0x33,0x1f,0x89,0x23,0x0a,0x00,0x89
,0x33,0x3c,0x01,0x99,0x23,0x15,0x00,0x99,0x33,0x20,0x1f,0x89,0x23,0x0a,0x00,0x89
,0x33,0x3c,0x01,0x99,0x2a,0x00,0x1f,0x89,0x2a,0x00,0x01,0x99,0x2a,0x00,0x1f,0x89
,0x2a,0x00,0x01,0x99,0x26,0x3b,0x00,0x99,0x33,0x36,0x1f,0x89,0x26,0x3c,0x00,0x89
,0x33,0x3c,0x01,0x99,0x2a,0x00,0x1f,0x89,0x2a,0x00,0x01,0x99,0x23,0x12,0x00,0x99
,0x33,0x26,0x1f,0x89,0x23,0x0a,0x00,0x89,0x33,0x3c,0x01,0x99,0x23,0x0b,0x00,0x99
,0x33,0x36,0x1f,0x89,0x23,0x0a,0x00,0x89,0x33,0x3c,0x01,0x99,0x2a,0x00,0x1f,0x89
,0x2a,0x00,0x01,0x99,0x2a,0x00,0x1f,0x89,0x2a,0x00,0x01,0x99,0x33,0x2b,0x1f,0x89
,0x33,0x20,0x01,0x99,0x2a,0x00,0x1f,0x89,0x2a,0x00,0x01,0x99,0x23,0x0c,0x00,0x99
,0x33,0x40,0x1f,0x89,0x23,0x0a,0x00,0x89,0x33,0x3c,0x01,0x99,0x23,0x17,0x00,0x99
,0x3b,0x24,0x1f,0x89,0x23,0x0a,0x00,0x89,0x3b,0x3c,0x01,0x99,0x2a,0x00,0x1f,0x89
,0x2a,0x00,0x01,0x99,0x2a,0x00,0x1f,0x89,0x2a,0x00,0x01,0x99,0x25,0x5a,0x1f,0x89
,0x25,0x5a,0x01,0x99,0x2a,0x00,0x1f,0x89,0x2a,0x00,0x01,0x99,0x3b,0x2f,0x1f,0x89
,0x3b,0x1f,0x01,0x99,0x23,0x16,0x00,0x99,0x33,0x2a,0x1f,0x89,0x23,0x0a,0x00,0x89
,0x33,0x3c,0x01,0x99,0x2a,0x00,0x1f,0x89,0x2a,0x00,0x01,0x99,0x2a,0x00,0x1f,0x89
,0x2a,0x00,0x01,0x99,0x26,0x2d,0x00,0x99,0x33,0x41,0x1f,0x89,0x26,0x3c,0x00,0x89
,0x33,0x3c,0x01,0x99,0x2a,0x00,0x1f,0x89,0x2a,0x00,0x01,0x99,0x33,0x1f,0x1f,0x89
,0x33,0x3f,0x01,0x99,0x23,0x5a,0x1f,0x89,0x23,0x5a,0x01,0x99,0x2a,0x00,0x1f,0x89
,0x2a,0x00,0x01,0x99,0x2a,0x00,0x1f,0x89,0x2a,0x00,0x01,0x99,0x26,0x2d,0x00,0x99
,0x3b,0x33,0x1f,0x89,0x26,0x3c,0x00,0x89,0x3b,0x3c,0x01,0x99,0x2a,0x00,0x1f,0x89
,0x2a,0x00,0x01,0x99,0x3b,0x33,0x1f,0x89,0x3b,0x42,0x01,0x99,0x33,0x31,0x1f,0x89
,0x33,0x42,0x01,0x99,0x2a,0x00,0x1f,0x89,0x2a,0x00,0x01,0x99,0x2a,0x00,0x1f,0x89
,0x2a,0x00,0x01,0x99,0x3b,0x25,0x1f,0x89,0x3b,0x38,0x01,0x99,0x2a,0x00,0x1f,0x89
,0x2a,0x00,0x01,0x99,0x26,0x2c,0x00,0x99,0x3b,0x2e,0x1f,0x89,0x26,0x3c,0x00,0x89
,0x3b,0x3c,0x01,0x99,0x23,0x5a,0x1f,0x89,0x23,0x5a,0x01,0x99,0x2a,0x00,0x1f,0x89
,0x2a,0x00,0x01,0x99,0x2a,0x00,0x1f,0x89,0x2a,0x00,0x01,0x99,0x26,0x33,0x00,0x99
,0x33,0x26,0x1f,0x89,0x26,0x3c,0x00,0x89,0x33,0x3c,0x01,0x99,0x2a,0x00,0x1f,0x89
,0x2a,0x00,0x01,0x99,0x23,0x16,0x00,0x99,0x3b,0x25,0x1f,0x89,0x23,0x0a,0x00,0x89
,0x3b,0x3c,0x01,0x99,0x3b,0x3d,0x1f,0x89,0x3b,0x3a,0x01,0x99,0x3b,0x2b,0x1f,0x89
,0x3b,0x2a,0x01,0x99,0x2a,0x00,0x1f,0x89,0x2a,0x00,0x01,0x99,0x3b,0x24,0x1f,0x89
,0x3b,0x27,0x01,0x99,0x2a,0x00,0x1f,0x89,0x2a,0x00,0x01,0x99,0x3b,0x39,0x1f,0x89
,0x3b,0x35,0x01,0x99,0x23,0x5a,0x1f,0x89,0x23,0x5a,0x01,0x99,0x2a,0x00,0x1f,0x89
,0x2a,0x00,0x01,0x99,0x2a,0x00,0x1f,0x89,0x2a,0x00,0x01,0x99,0x26,0x2f,0x00,0x99
,0x3b,0x21,0x1f,0x89,0x26,0x3c,0x00,0x89,0x3b,0x3c,0x01,0x99,0x2a,0x00,0x1f,0x89
,0x2a,0x00,0x01,0x99,0x26,0x37,0x00,0x99,0x33,0x21,0x1f,0x89,0x26,0x3c,0x00,0x89
,0x33,0x3c,0x01,0x99,0x33,0x32,0x1f,0x89,0x33,0x3a,0x01,0x99,0x2a,0x00,0x1f,0x89
,0x2a,0x00,0x01,0x99,0x2a,0x00,0x1f,0x89,0x2a,0x00,0x01,0x99,0x3b,0x36,0x1f,0x89
,0x3b,0x45,0x01,0x99,0x3b,0x45,0x1f,0x89,0x3b,0x2d,0x01,0x99,0x23,0x19,0x00,0x99
,0x3b,0x43,0x1f,0x89,0x23,0x0a,0x00,0x89,0x3b,0x3c,0x01,0x99,0x23,0x5a,0x1f,0x89
,0x23,0x5a,0x01,0x99,0x2a,0x00,0x1f,0x89,0x2a,0x00,0x01,0x99,0x2a,0x00,0x1f,0x89
,0x2a,0x00,0x01,0x99,0x26,0x39,0x00,0x99,0x3b,0x31,0x1f,0x89,0x26,0x3c,0x00,0x89
,0x3b,0x3c,0x01,0x99,0x33,0x42,0x1f,0x89,0x33,0x30,0x01,0x99,0x3b,0x3e,0x1f,0x89
,0x3b,0x3d,0x01,0x99,0x23,0x5a,0x1f,0x89,0x23,0x5a,0x01,0x99,0x2a,0x00,0x1f,0x89
,0x2a,0x00,0x01,0x99,0x2a,0x00,0x1f,0x89,0x2a,0x00,0x01,0x99,0x26,0x29,0x00,0x99
,0x3b,0x2a,0x1f,0x89,0x26,0x3c,0x00,0x89,0x3b,0x3c,0x01,0x99,0x2a,0x00,0x1f,0x89
,0x2a,0x00,0x01,0x99,0x3b,0x43,0x1f,0x89,0x3b,0x21,0x01,0x99,0x23,0x5a,0x1f,0x89
,0x23,0x5a,0x01,0x99,0x2a,0x00,0x1f,0x89,0x2a,0x00,0x01,0x99,0x2a,0x00,0x1f,0x89
,0x2a,0x00,0x01,0x99,0x26,0x2b,0x00,0x99,0x33,0x2e,0x1f,0x89,0x26,0x3c,0x00,0x89
,0x33,0x3c,0x01,0x99,0x2a,0x00,0x1f,0x89,0x2a,0x00,0x01,0x99,0x33,0x38,0x1f,0x89
,0x33,0x40,0x01,0x99,0x23,0x13,0x00,0x99,0x33,0x21,0x1f,0x89,0x23,0x0a,0x00,0x89
,0x33,0x3c,0x01,0x99,0x2a,0x00,0x1f,0x89,0x2a,0x00,0x01,0x99,0x2a,0x00,0x1f,0x89
,0x2a,0x00,0x01,0x99,0x26,0x2c,0x00,0x99,0x3b,0x43,0x1f,0x89,0x26,0x3c,0x00,0x89
,0x3b,0x3c,0x01,0x99,0x2a,0x00,0x1f,0x89,0x2a,0x00,0x01,0x99,0x26,0x50,0x1f,0x89
,0x26,0x50,0x01,0x99,0x23,0x5a,0x1f,0x89,0x23,0x5a,0x01,0x99,0x3b,0x32,0x1f,0x89
,0x3b,0x37,0x01,0x99,0x2a,0x00,0x1f,0x89,0x2a,0x00,0x01,0x99,0x33,0x2b,0x1f,0x89
,0x33,0x3c,0x01,0x99,0x2a,0x00,0x1f,0x89,0x2a,0x00,0x01,0x99,0x26,0x3b,0x00,0x99
,0x33,0x2c,0x1f,0x89,0x26,0x3c,0x00,0x89,0x33,0x3c,0x01,0x99,0x23,0x15,0x00,0x99
,0x33,0x2c,0x1f,0x89,0x23,0x0a,0x00,0x89,0x33,0x3c,0x01,0x99,0x3b,0x34,0x1f,0x89
,0x3b,0x3c,0x01,0x99,0x2a,0x00,0x1f,0x89,0x2a,0x00,0x01,0x99,0x26,0x2a,0x00,0x99
,0x33,0x33,0x1f,0x89,0x26,0x3c,0x00,0x89,0x33,0x3c,0x01,0x99,0x2a,0x00,0x1f,0x89
,0x2a,0x00,0x01,0x99,0x26,0x2d,0x00,0x99,0x3b,0x3f,0x1f,0x89,0x26,0x3c,0x00,0x89
,0x3b,0x3c,0x01,0x99,0x23,0x1c,0x00,0x99,0x3b,0x43,0x1f,0x89,0x23,0x0a,0x00,0x89
,0x3b,0x3c,0x01,0x99,0x2a,0x00,0x1f,0x89,0x2a,0x00,0x01,0x99,0x2a,0x00,0x1f,0x89
,0x2a,0x00,0x01,0x99,0x26,0x31,0x00,0x99,0x33,0x36,0x1f,0x89,0x26,0x3c,0x00,0x89
,0x33,0x3c,0x01,0x99,0x2a,0x00,0x1f,0x89,0x2a,0x00,0x01,0x99,0x33,0x1f,0x1f,0x89
,0x33,0x23,0x01,0x99,0x23,0x5a,0x1f,0x89,0x23,0x5a,0x01,0x99,0x2a,0x00,0x1f,0x89
,0x2a,0x00,0x01,0x99,0x2a,0x00,0x1f,0x89,0x2a,0x00,0x01,0x99,0x26,0x32,0x00,0x99
,0x3b,0x20,0x1f,0x89,0x26,0x3c,0x00,0x89,0x3b,0x3c,0x01,0x99,0x2a,0x00,0x1f,0x89
,0x2a,0x00,0x01,0x99,0x3b,0x3b,0x1f,0x89,0x3b,0x29,0x01,0x99,0x23,0x5a,0x1f,0x89
,0x23,0x5a,0x01,0x99,0x2a,0x00,0x1f,0x89,0x2a,0x00,0x01,0x99,0x2a,0x00,0x1f,0x89
,0x2a,0x00,0x01,0x99,0x26,0x37,0x00,0x99,0x33,0x35,0x1f,0x89,0x26,0x3c,0x00,0x89
,0x33,0x3c,0x01,0x99,0x2a,0x00,0x1f,0x89,0x2a,0x00,0x01,0x99,0x26,0x36,0x00,0x99
,0x3b,0x46,0x1f,0x89,0x26,0x3c,0x00,0x89,0x3b,0x3c,0x01,0x99,0x23,0x5a,0x1f,0x89
,0x23,0x5a,0x01,0x99,0x2a,0x00,0x1f,0x89,0x2a,0x00,0x01,0x99,0x2a,0x00,0x1f,0x89
,0x2a,0x00,0x01,0x99,0x3b,0x27,0x1f,0x89,0x3b,0x42,0x01,0x99,0x2a,0x00,0x1f,0x89
,0x2a,0x00,0x01,0x99,0x33,0x24,0x1f,0x89,0x33,0x27,0x01,0x99,0x33,0x25,0x1f,0x89
,0x33,0x39,0x01,0x99,0x3b,0x29,0x1f,0x89,0x3b,0x3b,0x01,0x99,0x2a,0x00,0x1f,0x89
,0x2a,0x00,0x01,0x99,0x3b,0x24,0x1f,0x89,0x3b,0x20,0x01,0x99,0x2a,0x00,0x1f,0x89
,0x2a,0x00,0x01,0x99,0x23,0x0d,0x00,0x99,0x3b,0x45,0x1f,0x89,0x23,0x0a,0x00,0x89
,0x3b,0x3c,0x01,0x99,0x23,0x1e,0x00,0x99,0x3b,0x30,0x1f,0x89,0x23,0x0a,0x00,0x89
,0x3b,0x3c,0x01,0x99,0x2a,0x00,0x1f,0x89,0x2a,0x00,0x01,0x99,0x2a,0x00,0x1f,0x89
,0x2a,0x00,0x01,0x99,0x25,0x5a,0x1f,0x89,0x25,0x5a,0x01,0x99,0x2a,0x00,0x1f,0x89
,0x2a,0x00,0x01,0x99,0x33,0x38,0x1f,0x89,0x33,0x32,0x01,0x99,0x23,0x0b,0x00,0x99
,0x33,0x3b,0x1f,0x89,0x23,0x0a,0x00,0x89,0x33,0x3c,0x01,0x99,0x2a,0x00,0x1f,0x89
,0x2a,0x00,0x01,0x99,0x2a,0x00,0x1f,0x89,0x2a,0x00,0x01,0x99,0x3b,0x32,0x1f,0x89
,0x3b,0x3b,0x01,0x99,0x2a,0x00,0x1f,0x89,0x2a,0x00,0x01,0x99,0x33,0x2f,0x1f,0x89
,0x33,0x34,0x01,0x99,0x23,0x13,0x00,0x99,0x33,0x26,0x1f,0x89,0x23,0x0a,0x00,0x89
,0x33,0x3c,0x01,0x99,0x2a,0x00,0x1f,0x89,0x2a,0x00,0x01,0x99,0x2a,0x00,0x1f,0x89
,0x2a,0x00,0x01,0x99,0x3b,0x3e,0x1f,0x89,0x3b,0x3d,0x01,0x99,0x2a,0x00,0x1f,0x89
,0x2a,0x00,0x01,0x99,0x26,0x50,0x1f,0x89,0x26,0x50,0x00,0xff,0x2f,0x00};

